<svg xmlns="http://www.w3.org/2000/svg" width="27" height="27" viewBox="0 0 27 27">
  <path fill="none" stroke="#FFF" stroke-width="1.25" d="M1.37702059,25 C0.616290291,25 0,24.3820789 0,23.6201056 L0,1.37979738 C0,0.617630054 0.6163871,0 1.37702059,0 L23.5725712,0 C24.333011,0 24.9494949,0.617630054 24.9494949,1.37979738 L24.9494949,23.6201056 C24.9494949,24.3821759 24.3329142,25 23.5725712,25 L17.2147904,25 L17.2147904,15.3186222 L20.4578172,15.3186222 L20.9434144,11.5456175 L17.2147904,11.5456175 L17.2147904,9.1367924 C17.2147904,8.04442047 17.5175142,7.30000504 19.0807966,7.30000504 L21.0746883,7.299132 L21.0746883,3.92452633 C20.7298523,3.87854601 19.5462574,3.77581785 18.1692368,3.77581785 C15.294474,3.77581785 13.3263336,5.53412826 13.3263336,8.76312961 L13.3263336,11.5456175 L10.0749812,11.5456175 L10.0749812,15.3186222 L13.3263336,15.3186222 L13.3263336,25 L1.37702059,25 Z" transform="translate(1 1)"/>
</svg>
