<svg xmlns="http://www.w3.org/2000/svg" xmlns:xlink="http://www.w3.org/1999/xlink" width="364" height="113" viewBox="0 0 364 113">
  <defs>
    <polygon id="logo-rad-a" points="0 .703 41.534 .703 41.534 75.039 0 75.039"/>
  </defs>
  <g fill="none" fill-rule="evenodd">
    <path fill="#FFF" d="M46.19745,36.570144 C48.75819,36.570144 50.86029,34.482084 50.86029,31.921344 C50.86029,29.346564 48.75819,27.257724 46.19745,27.257724 C43.63593,27.257724 41.53383,29.346564 41.53383,31.921344 C41.53383,34.482084 43.63593,36.570144 46.19745,36.570144" opacity=".6"/>
    <path fill="#FFF" d="M77.914668,94.399032 C74.905428,96.885672 71.598228,99.028332 68.060928,100.766952 C67.906488,99.884772 67.742688,99.007272 67.557828,98.136012 C67.486068,97.767072 67.409628,97.403592 67.327728,97.039332 C67.255188,96.695352 67.178748,96.352152 67.096848,96.008172 C66.594528,93.809352 66.009528,91.645632 65.348088,89.517792 C64.681968,87.389952 63.948768,85.293312 63.139128,83.236452 C64.189788,82.918992 65.224848,82.571112 66.245868,82.181112 C68.650608,81.268512 70.957848,80.171832 73.146528,78.899652 C74.520108,82.350372 75.710388,85.893132 76.704888,89.522472 C76.745448,89.671452 76.786788,89.814972 76.827348,89.963172 C76.971648,90.502152 77.109708,91.045812 77.248548,91.588692 C77.484108,92.522352 77.704068,93.455232 77.914668,94.399032"/>
    <path fill="#FFF" d="M68.547804,68.94849 C67.517424,69.58341 66.455844,70.16841 65.358384,70.69647 C63.785124,71.47101 62.144004,72.12699 60.442044,72.66051 C59.790744,72.86487 59.129304,73.05519 58.457724,73.22445 C58.258044,72.86097 58.063044,72.49671 57.857904,72.13713 C57.668364,71.79861 57.473364,71.46087 57.278364,71.12235 C57.093504,70.79943 56.903964,70.48119 56.714424,70.16373 C54.761304,66.88227 52.603044,63.73341 50.254464,60.74055 C49.060284,59.20785 47.813844,57.71025 46.516704,56.25867 C46.480824,56.21811 46.445724,56.17209 46.404384,56.13075 C46.255404,55.96227 46.106424,55.79847 45.958224,55.63389 C45.804564,55.79847 45.655584,55.96695 45.506604,56.13621 C41.559024,60.52449 38.042004,65.30823 35.022624,70.42035 C34.873644,70.67151 34.730124,70.92189 34.586604,71.17383 C34.401744,71.49129 34.222344,71.80407 34.042944,72.12699 C32.576544,74.73687 31.233384,77.42865 30.033744,80.19141 C29.926104,80.43789 29.818464,80.68359 29.716284,80.93007 C28.531464,83.71935 27.480804,86.58507 26.578344,89.51787 C25.332684,93.56763 24.363924,97.74687 23.697024,102.02751 C23.625264,102.45807 23.563644,102.88395 23.507484,103.31451 C23.440404,103.74507 23.384244,104.17563 23.332764,104.60619 C23.220444,105.46731 23.122944,106.34013 23.041044,107.21139 C22.994244,107.64663 22.953684,108.08265 22.922484,108.52335 C22.881924,108.95937 22.851504,109.40007 22.820304,109.84155 C22.768824,110.60517 22.722804,111.37425 22.691604,112.14879 C18.974904,110.62545 15.442284,108.73941 12.140544,106.53435 C12.217764,105.70911 12.305124,104.88777 12.402624,104.06799 C12.402624,104.05317 12.402624,104.03757 12.407304,104.02743 C12.473604,103.44321 12.550824,102.86289 12.628044,102.28413 C12.632724,102.23265 12.643644,102.18117 12.648324,102.13047 C12.735684,101.50413 12.827724,100.88403 12.925224,100.26861 C13.022724,99.63837 13.124904,99.00735 13.238004,98.38179 C13.330044,97.84905 13.427544,97.31553 13.529724,96.78279 C13.566384,96.60807 13.596804,96.43881 13.632684,96.26955 C13.740324,95.73213 13.847964,95.19315 13.965744,94.66041 C13.981344,94.57773 14.001624,94.49661 14.022684,94.41393 C15.473484,87.71763 17.595864,81.27951 20.307924,75.16743 C20.328204,75.12609 20.349264,75.08007 20.369544,75.03951 C21.871824,71.66523 23.553504,68.39469 25.403664,65.23647 L25.403664,65.23101 C25.891164,64.40109 26.393484,63.57507 26.906724,62.75529 C30.023604,57.77187 33.561684,53.08563 37.478064,48.73791 C34.730124,47.12331 31.761444,45.85659 28.634424,45.00015 C30.858984,41.37549 34.196604,38.50431 38.170704,36.85851 C39.201084,37.30935 40.215864,37.80699 41.210364,38.33505 C42.656484,39.10413 44.061264,39.94497 45.414564,40.86303 C45.593964,40.98159 45.773364,41.10405 45.952764,41.22651 C46.137624,41.09859 46.322484,40.97067 46.512024,40.84743 C48.788064,39.31473 51.202944,37.97625 53.741064,36.85383 C57.719844,38.49963 61.056684,41.37081 63.287484,45.00015 C60.129264,45.85659 57.155904,47.12331 54.418104,48.73791 C54.535884,48.86661 54.648204,48.99453 54.755844,49.12245 C56.673084,51.27057 58.499064,53.50605 60.221304,55.81797 C61.882704,58.03863 63.451284,60.32481 64.923144,62.68353 C64.948104,62.72487 64.973844,62.76465 64.999584,62.80599 C65.774124,64.03683 66.512004,65.28249 67.230384,66.54921 C67.675764,67.34325 68.117244,68.14353 68.547804,68.94849" opacity=".6"/>
    <mask id="logo-rad-b" fill="#fff">
      <use xlink:href="#logo-rad-a"/>
    </mask>
    <path fill="#FFF" d="M29.546712,22.221654 L29.203512,22.749714 C28.183272,24.123294 27.019512,25.379874 25.711452,26.476554 C23.824632,28.070874 21.661692,29.347734 19.308432,30.234594 C17.539392,30.906954 15.663492,31.352334 13.709592,31.547334 C13.145652,31.603494 12.571572,31.639374 11.992032,31.650294 C11.833692,31.654974 11.673792,31.654974 11.515452,31.654974 C11.407812,31.654974 11.294712,31.654974 11.187072,31.650294 C11.212812,31.424094 11.244012,31.198674 11.279112,30.973254 C11.689392,28.117674 12.443652,25.348674 13.494312,22.723974 C13.683852,22.252074 13.878852,21.790314 14.083992,21.328554 C14.991132,19.313814 16.083132,17.473794 17.334252,15.664194 C17.334252,15.664194 17.682912,15.166554 18.144672,14.602614 C18.426252,14.264874 18.898152,13.797654 18.898152,13.797654 C20.143812,12.388194 21.964332,11.501334 23.993892,11.501334 C24.199812,11.501334 24.399492,11.511474 24.599172,11.531754 C28.070172,11.834394 30.793152,14.751594 30.793152,18.299034 C30.793152,19.760754 30.331392,21.114054 29.546712,22.221654 M31.879692,34.223514 C31.889832,34.213374 31.905432,34.207914 31.925712,34.197774 C33.007572,33.608874 34.037952,32.931054 35.002032,32.172894 C35.053512,32.137014 35.099532,32.101134 35.151012,32.054334 C35.165832,32.044974 35.181432,32.029374 35.197032,32.019234 C39.072852,28.768974 41.533752,23.887734 41.533752,18.433194 C41.533752,12.885054 38.985492,7.932834 34.996572,4.682574 C34.243092,4.067154 33.438132,3.513354 32.587152,3.030534 L32.587152,3.026634 C32.561412,3.010254 32.535672,2.995434 32.505252,2.979834 C29.936712,1.529034 26.968032,0.703014 23.804352,0.703014 C22.491612,0.703014 21.210072,0.847314 19.980012,1.118754 L19.975332,1.123434 C17.913792,1.575054 15.991092,2.384694 14.268852,3.486834 C14.263392,3.486834 14.257932,3.492294 14.253252,3.497754 C12.971712,4.363554 11.786892,5.364294 10.720632,6.475794 C10.710492,6.486714 10.700352,6.502314 10.684752,6.511674 C10.120812,7.096674 9.592752,7.712094 9.095112,8.353254 C9.054552,8.409414 9.013212,8.465574 8.971872,8.522514 C8.951592,8.542794 8.936772,8.563074 8.921172,8.584134 C8.782332,8.773674 8.648952,8.963214 8.516352,9.152754 C8.382972,9.346974 8.249592,9.537294 8.121672,9.731514 C8.080332,9.789234 8.044452,9.844614 8.014032,9.896094 C6.280872,12.474774 4.804332,15.218034 3.604692,18.099354 C2.758392,20.134374 2.050932,22.237254 1.497132,24.394734 L1.497132,24.400194 C1.138332,25.769094 0.846612,27.158274 0.615732,28.568514 C0.605592,28.630134 0.594672,28.696434 0.584532,28.763514 C0.164112,31.399134 -0.035568,34.090134 0.004992,36.823254 C0.036192,39.109434 0.235872,41.421354 0.615732,43.749654 C0.861432,45.266754 1.174212,46.753434 1.558752,48.209694 C4.286412,58.648434 10.397712,67.472574 18.498012,73.675914 C19.108752,74.147034 19.733532,74.603334 20.369232,75.039354 C21.871512,71.665854 23.553192,68.394534 25.404132,65.236314 C25.388532,65.226954 25.373712,65.210574 25.363572,65.201214 C18.759312,60.227934 13.842972,53.009034 11.853192,44.446974 C12.448332,44.323734 13.053612,44.221554 13.658112,44.134194 C14.468532,44.011734 15.283632,43.914234 16.108872,43.847154 C20.446452,43.493034 24.666252,43.918134 28.634112,44.999994 C30.859452,41.376114 34.197072,38.504154 38.170392,36.859134 C36.001212,35.889594 33.750912,35.090094 31.433532,34.464534 C31.582512,34.382634 31.730712,34.305414 31.879692,34.223514" mask="url(#logo-rad-b)" opacity=".4"/>
    <path fill="#FFF" d="M46.11711,83.893446 C46.15299,84.313866 46.18887,84.728826 46.23489,85.144566 C42.96435,84.923826 39.77025,84.360666 36.69393,83.498766 C34.28919,82.827186 31.95621,81.960606 29.71605,80.930226 C29.81823,80.683746 29.92587,80.438046 30.03351,80.191566 C31.23315,77.428806 32.57709,74.737026 34.04349,72.127146 C34.22211,71.804226 34.40151,71.491446 34.58637,71.173206 C35.49429,71.578806 36.41703,71.947746 37.36005,72.275346 C40.21095,73.290906 43.21551,73.952346 46.31679,74.219106 C45.92757,77.367186 45.85035,80.607306 46.11711,83.893446" opacity=".4"/>
    <path fill="#FFF" d="M91.26 54.01344C91.26 58.48908 89.86536 62.64258 87.48168 66.05196 87.14862 66.50826 86.80464 66.9591 86.45052 67.3998 86.42556 67.43568 86.39436 67.46688 86.36862 67.50276 82.72368 72.06108 78.24804 75.9408 73.14684 78.89934 70.95738 80.17152 68.65014 81.2682 66.2454 82.1808 65.22516 82.5708 64.18932 82.91946 63.13866 83.23692 60.54438 84.0216 57.8526 84.58554 55.07892 84.91392 54.4947 84.98568 53.90502 85.04652 53.31066 85.09332 50.92152 85.28832 48.55734 85.29768 46.23528 85.14402 46.18926 84.72906 46.1526 84.3141 46.1175 83.89368 45.85074 80.60754 45.92718 77.36664 46.31718 74.21856 48.31632 74.38782 50.35758 74.39874 52.42302 74.2287 53.23812 74.1624 54.0384 74.07036 54.8379 73.94712 54.84804 73.94712 54.86364 73.94244 54.87378 73.94244 56.08902 73.76226 57.28866 73.52202 58.45788 73.22484 59.12946 73.0548 59.7909 72.86526 60.4422 72.66012 62.14416 72.12738 63.7845 71.4714 65.35854 70.69686 66.456 70.1688 67.51758 69.5838 68.54796 68.9481 72.11646 66.74382 75.25908 63.9444 77.85336 60.69882 77.8635 60.684 77.8791 60.6684 77.88924 60.65358 78.156 60.34548 78.4017 60.02724 78.63258 59.68872 78.63726 59.67858 78.64818 59.66844 78.65832 59.65284 79.73472 58.0437 80.36496 56.09994 80.36496 54.01344 80.36496 53.21862 80.27292 52.44954 80.09898 51.71166 79.05768 47.2095 75.02274 43.85706 70.20858 43.85706 69.88098 43.85706 69.55728 43.87266 69.23982 43.90308 69.20394 43.90854 69.16806 43.90854 69.1275 43.914 67.12212 44.11836 65.17446 44.48808 63.28764 44.99976 61.05684 41.37042 57.72 38.49924 53.74122 36.85344 58.17552 34.8894 62.985 33.5829 68.055 33.06966 68.76324 32.99868 69.48084 32.96202 70.20858 32.96202 72.30054 32.96202 74.32074 33.26466 76.22316 33.83952 78.93522 34.6437 81.4164 35.97672 83.54892 37.7247 84.33828 38.37132 85.07694 39.0741 85.76412 39.82758 87.93252 42.2058 89.5635 45.08244 90.46518 48.2664 90.92694 49.89192 91.19838 51.59856 91.24986 53.36214 91.25532 53.57742 91.26 53.79348 91.26 54.01344M107.892976 51.5524057L118.902355 51.5524057C120.348851 51.5524057 121.721661 51.693035 123.020828 51.9742979 124.319995 52.2555609 125.458423 52.7243254 126.436146 53.3806056 127.41387 54.0368858 128.19068 54.9208417 128.766599 56.0325 129.342518 57.1441582 129.630474 58.5303619 129.630474 60.1911525 129.630474 62.2001735 129.108136 63.9078157 128.063445 65.3141303 127.018754 66.720445 125.491921 67.6110976 123.4829 67.9861148L130.71534 80 123.201639 80 117.254966 68.6289983 114.16109 68.6289983 114.16109 80 107.892976 80 107.892976 51.5524057zM114.16109 63.3252095L117.85767 63.3252095C118.420196 63.3252095 119.016196 63.3051196 119.645689 63.2649392 120.275183 63.2247588 120.844397 63.1042193 121.353349 62.9033172 121.862301 62.7024151 122.284189 62.3876733 122.619026 61.9590821 122.953862 61.530491 123.121278 60.9277937 123.121278 60.1509723 123.121278 59.4277248 122.973952 58.8518141 122.679296 58.4232229 122.38464 57.9946318 122.009628 57.6664966 121.55425 57.4388076 121.098872 57.2111186 120.576534 57.0570959 119.987221 56.9767351 119.397909 56.8963742 118.821998 56.8561944 118.259472 56.8561944L114.16109 56.8561944 114.16109 63.3252095zM144.811771 51.5524057L149.995019 51.5524057 162.370526 80 155.298808 80 152.847815 73.9729673 141.798255 73.9729673 139.427622 80 132.516624 80 144.811771 51.5524057zM147.222584 59.8295306L143.767086 68.6691785 150.718263 68.6691785 147.222584 59.8295306zM165.369182 51.5524057L174.771353 51.5524057C177.048243 51.5524057 179.211257 51.8068778 181.260458 52.3158298 183.30966 52.8247818 185.097661 53.648468 186.624517 54.7869132 188.151373 55.9253584 189.363464 57.405315 190.260827 59.2268273 191.15819 61.0483396 191.606864 63.2582295 191.606864 65.8565633 191.606864 68.1602406 191.171583 70.1893213 190.301007 71.9438663 189.430431 73.6984112 188.25852 75.1716712 186.785238 76.3636903 185.311956 77.5557094 183.611011 78.4597552 181.68235 79.075855 179.75369 79.6919547 177.731306 80 175.615138 80L165.369182 80 165.369182 51.5524057zM171.637296 74.2140486L174.891894 74.2140486C176.338389 74.2140486 177.684413 74.0667226 178.930006 73.7720662 180.175599 73.4774098 181.253757 72.9885554 182.164513 72.3054883 183.075269 71.6224211 183.791809 70.7250719 184.314155 69.6134136 184.8365 68.5017554 185.097669 67.1423383 185.097669 65.5351215 185.097669 64.1422003 184.8365 62.9301092 184.314155 61.8988118 183.791809 60.8675144 183.088662 60.0170416 182.204693 59.3473679 181.320724 58.6776943 180.282745 58.1754466 179.090726 57.8406098 177.898707 57.5057729 176.646436 57.338357 175.333876 57.338357L171.637296 57.338357 171.637296 74.2140486zM210.250848 56.0038333L210.987665 56.0038333 213.553821 62 212.605275 62 212.003964 60.5178966 209.149857 60.5178966 208.557015 62 207.608469 62 210.250848 56.0038333zM211.707544 59.806487L210.589614 57.0540094 210.572676 57.0540094 209.437808 59.806487 211.707544 59.806487zM216.428422 58.9934475C216.338084 58.8805248 216.226574 58.7859534 216.09389 58.7097306 215.961206 58.6335077 215.798882 58.5953969 215.606913 58.5953969 215.426237 58.5953969 215.269559 58.6335077 215.136875 58.7097306 215.00419 58.7859534 214.937849 58.8974629 214.937849 59.0442625 214.937849 59.1628313 214.97596 59.2588142 215.052183 59.332214 215.128406 59.4056137 215.218743 59.4648973 215.323196 59.5100664 215.42765 59.5552355 215.539159 59.5891118 215.657728 59.6116963 215.776297 59.6342809 215.877926 59.654042 215.962618 59.6709805 216.126356 59.7105034 216.280211 59.7584948 216.424187 59.8149562 216.568164 59.8714176 216.692377 59.9448162 216.79683 60.0351544 216.901284 60.1254926 216.983152 60.2355906 217.042436 60.3654517 217.101721 60.4953129 217.131362 60.6534023 217.131362 60.8397248 217.131362 61.0655703 217.083371 61.2589475 216.987387 61.4198624 216.891402 61.5807773 216.767189 61.712048 216.614743 61.8136784 216.462298 61.9153089 216.288682 61.9887076 216.09389 62.0338766 215.899098 62.0790457 215.702898 62.1016299 215.505283 62.1016299 215.172161 62.1016299 214.879978 62.0508155 214.628725 61.949185 214.377472 61.8475546 214.153041 61.6612349 213.955427 61.3902203L214.53133 60.9159473C214.655545 61.0401623 214.793873 61.1502603 214.946319 61.2462446 215.098764 61.3422289 215.285084 61.3902203 215.505283 61.3902203 215.601268 61.3902203 215.698662 61.3803397 215.797469 61.3605783 215.896277 61.3408168 215.98379 61.3097635 216.060013 61.2674175 216.136236 61.2250715 216.198343 61.171434 216.246335 61.1065034 216.294327 61.0415728 216.318323 60.9667627 216.318323 60.8820706 216.318323 60.7691479 216.283035 60.675988 216.212458 60.6025883 216.141882 60.5291885 216.057191 60.4713165 215.958383 60.4289704 215.859576 60.3866244 215.755124 60.3527481 215.645024 60.3273405 215.534925 60.3019329 215.43753 60.2807602 215.352838 60.2638218 215.1891 60.2242988 215.033834 60.1791304 214.887034 60.1283152 214.740235 60.0775 214.610376 60.0097474 214.497453 59.9250553 214.38453 59.8403633 214.294193 59.7330883 214.22644 59.6032272 214.158686 59.473366 214.12481 59.3124536 214.12481 59.1204849 214.12481 58.9115779 214.168567 58.7294927 214.256082 58.574224 214.343597 58.4189552 214.459341 58.2905076 214.603317 58.1888771 214.747294 58.0872466 214.911029 58.011025 215.094529 57.9602097 215.278028 57.9093945 215.462936 57.8839873 215.649259 57.8839873 215.920274 57.8839873 216.179992 57.9348017 216.428422 58.0364322 216.676852 58.1380626 216.874464 58.3074442 217.021263 58.5445819L216.428422 58.9934475zM218.82875 59.9928086C218.82875 60.1960695 218.859803 60.3838007 218.921911 60.5560079 218.984018 60.728215 219.071532 60.8750124 219.184455 60.9964043 219.297377 61.1177962 219.435706 61.2137791 219.599444 61.2843558 219.763181 61.3549325 219.946678 61.3902203 220.149939 61.3902203 220.3532 61.3902203 220.536697 61.3549325 220.700435 61.2843558 220.864173 61.2137791 221.002501 61.1177962 221.115424 60.9964043 221.228346 60.8750124 221.31586 60.728215 221.377968 60.5560079 221.440075 60.3838007 221.471128 60.1960695 221.471128 59.9928086 221.471128 59.7895477 221.440075 59.6018165 221.377968 59.4296093 221.31586 59.2574022 221.228346 59.1106048 221.115424 58.9892129 221.002501 58.867821 220.864173 58.7718381 220.700435 58.7012614 220.536697 58.6306847 220.3532 58.5953969 220.149939 58.5953969 219.946678 58.5953969 219.763181 58.6306847 219.599444 58.7012614 219.435706 58.7718381 219.297377 58.867821 219.184455 58.9892129 219.071532 59.1106048 218.984018 59.2574022 218.921911 59.4296093 218.859803 59.6018165 218.82875 59.7895477 218.82875 59.9928086zM218.01571 59.9928086C218.01571 59.6992095 218.070759 59.425376 218.180859 59.1712999 218.290959 58.9172238 218.44199 58.6942047 218.633959 58.5022361 218.825928 58.3102675 219.05177 58.1592356 219.311492 58.0491359 219.571214 57.9390363 219.850694 57.8839873 220.149939 57.8839873 220.449184 57.8839873 220.728664 57.9390363 220.988386 58.0491359 221.248108 58.1592356 221.47395 58.3102675 221.665919 58.5022361 221.857888 58.6942047 222.00892 58.9172238 222.119019 59.1712999 222.229119 59.425376 222.284168 59.6992095 222.284168 59.9928086 222.284168 60.2864077 222.229119 60.5616527 222.119019 60.8185519 222.00892 61.0754511 221.857888 61.2984701 221.665919 61.4876157 221.47395 61.6767613 221.248108 61.8263816 220.988386 61.9364813 220.728664 62.0465809 220.449184 62.1016299 220.149939 62.1016299 219.850694 62.1016299 219.571214 62.0465809 219.311492 61.9364813 219.05177 61.8263816 218.825928 61.6767613 218.633959 61.4876157 218.44199 61.2984701 218.290959 61.0754511 218.180859 60.8185519 218.070759 60.5616527 218.01571 60.2864077 218.01571 59.9928086zM226.268229 59.0527316C226.127076 58.9059321 225.978867 58.7944226 225.823598 58.7181997 225.668329 58.6419769 225.483421 58.603866 225.268868 58.603866 225.059961 58.603866 224.877876 58.6419769 224.722607 58.7181997 224.567338 58.7944226 224.437479 58.8988745 224.333026 59.0315587 224.228572 59.1642429 224.149527 59.3166863 224.095889 59.4888935 224.042251 59.6611006 224.015432 59.8403628 224.015432 60.0266853 224.015432 60.2130077 224.046485 60.3894469 224.108593 60.5560079 224.1707 60.7225689 224.258214 60.8679547 224.371137 60.9921697 224.48406 61.1163847 224.619565 61.2137791 224.777657 61.2843558 224.935748 61.3549325 225.113599 61.3902203 225.311214 61.3902203 225.525767 61.3902203 225.709264 61.3521095 225.861709 61.2758866 226.014155 61.1996638 226.155306 61.0881543 226.285167 60.9413548L226.827194 61.4833811C226.629579 61.7035804 226.399502 61.8616699 226.136957 61.9576542 225.874412 62.0536385 225.596344 62.1016299 225.302745 62.1016299 224.992207 62.1016299 224.708493 62.0508155 224.451594 61.949185 224.194695 61.8475546 223.973087 61.7049918 223.786765 61.5214923 223.600442 61.3379929 223.456468 61.1177969 223.354837 60.8608977 223.253207 60.6039985 223.202392 60.3202844 223.202392 60.0097469 223.202392 59.6992094 223.253207 59.4140838 223.354837 59.1543616 223.456468 58.8946393 223.599031 58.6716203 223.78253 58.4852978 223.96603 58.2989753 224.186226 58.1535894 224.443125 58.0491359 224.700024 57.9446824 224.986561 57.8924564 225.302745 57.8924564 225.596344 57.8924564 225.877235 57.9446824 226.145426 58.0491359 226.413618 58.1535894 226.646517 58.3130904 226.844132 58.5276436L226.268229 59.0527316zM227.694603 57.9856172L228.456828 57.9856172 228.456828 62 227.694603 62 227.694603 57.9856172zM227.516751 56.5458597C227.516751 56.393414 227.5718 56.2621433 227.6819 56.1520436 227.791999 56.041944 227.92327 55.986895 228.075716 55.986895 228.228161 55.986895 228.359432 56.041944 228.469532 56.1520436 228.579631 56.2621433 228.63468 56.393414 228.63468 56.5458597 228.63468 56.6983054 228.579631 56.829576 228.469532 56.9396757 228.359432 57.0497754 228.228161 57.1048244 228.075716 57.1048244 227.92327 57.1048244 227.791999 57.0497754 227.6819 56.9396757 227.5718 56.829576 227.516751 56.6983054 227.516751 56.5458597zM229.840856 58.4768286C230.05541 58.2792138 230.303836 58.131005 230.586143 58.0321976 230.86845 57.9333902 231.150752 57.8839873 231.433059 57.8839873 231.726658 57.8839873 231.979319 57.9206866 232.191049 57.9940864 232.402779 58.0674861 232.576395 58.166292 232.711902 58.290507 232.84741 58.414722 232.947627 58.5572848 233.012558 58.7181997 233.077488 58.8791146 233.109953 59.0470846 233.109953 59.2221149L233.109953 61.2716521C233.109953 61.4128055 233.112776 61.5426647 233.118422 61.6612335 233.124068 61.7798024 233.132537 61.8927234 233.14383 62L232.466297 62C232.449358 61.7967391 232.440889 61.5934812 232.440889 61.3902203L232.423951 61.3902203C232.254567 61.6499426 232.054132 61.8334393 231.82264 61.9407159 231.591149 62.0479925 231.322961 62.1016299 231.01807 62.1016299 230.831748 62.1016299 230.653897 62.0762227 230.484513 62.0254075 230.315129 61.9745923 230.16692 61.8983706 230.039882 61.7967401 229.912844 61.6951097 229.812626 61.569485 229.739227 61.4198624 229.665827 61.2702398 229.629127 61.0966237 229.629127 60.8990089 229.629127 60.6392867 229.686999 60.4219137 229.802745 60.2468835 229.918491 60.0718532 230.07658 59.9292904 230.277018 59.8191908 230.477456 59.7090911 230.711767 59.6300464 230.979959 59.5820542 231.24815 59.5340621 231.534687 59.5100664 231.839579 59.5100664L232.398543 59.5100664 232.398543 59.3406831C232.398543 59.2390527 232.378782 59.1374238 232.339259 59.0357933 232.299736 58.9341628 232.240453 58.8424145 232.161407 58.7605455 232.082361 58.6786766 231.983555 58.613747 231.864986 58.5657548 231.746417 58.5177627 231.605266 58.4937669 231.441528 58.4937669 231.294729 58.4937669 231.166281 58.5078821 231.056181 58.5361127 230.946082 58.5643434 230.845864 58.5996312 230.755526 58.6419773 230.665188 58.6843233 230.58332 58.7337262 230.50992 58.7901876 230.436521 58.846649 230.365945 58.9002865 230.298191 58.9511017L229.840856 58.4768286zM231.992024 60.0690311C231.811347 60.0690311 231.626439 60.0789117 231.437294 60.0986731 231.248148 60.1184346 231.075943 60.1565455 230.920675 60.2130068 230.765406 60.2694682 230.63837 60.3485129 230.539562 60.4501434 230.440755 60.5517738 230.391352 60.681633 230.391352 60.8397248 230.391352 61.0712164 230.468985 61.2377749 230.624254 61.3394054 230.779523 61.4410358 230.989838 61.4918503 231.255207 61.4918503 231.464114 61.4918503 231.641964 61.4565625 231.788764 61.3859858 231.935563 61.3154091 232.05413 61.2236607 232.144469 61.110738 232.234807 60.9978153 232.299736 60.8721906 232.339259 60.7338603 232.378782 60.5955299 232.398543 60.4586132 232.398543 60.3231059L232.398543 60.0690311 231.992024 60.0690311zM237.246459 59.0527316C237.105306 58.9059321 236.957097 58.7944226 236.801828 58.7181997 236.646559 58.6419769 236.461651 58.603866 236.247098 58.603866 236.038191 58.603866 235.856106 58.6419769 235.700837 58.7181997 235.545568 58.7944226 235.415709 58.8988745 235.311256 59.0315587 235.206802 59.1642429 235.127757 59.3166863 235.074119 59.4888935 235.020481 59.6611006 234.993662 59.8403628 234.993662 60.0266853 234.993662 60.2130077 235.024715 60.3894469 235.086823 60.5560079 235.14893 60.7225689 235.236444 60.8679547 235.349367 60.9921697 235.46229 61.1163847 235.597795 61.2137791 235.755887 61.2843558 235.913978 61.3549325 236.091829 61.3902203 236.289444 61.3902203 236.503997 61.3902203 236.687494 61.3521095 236.839939 61.2758866 236.992385 61.1996638 237.133536 61.0881543 237.263397 60.9413548L237.805424 61.4833811C237.607809 61.7035804 237.377732 61.8616699 237.115187 61.9576542 236.852642 62.0536385 236.574574 62.1016299 236.280975 62.1016299 235.970437 62.1016299 235.686723 62.0508155 235.429824 61.949185 235.172925 61.8475546 234.951317 61.7049918 234.764995 61.5214923 234.578672 61.3379929 234.434698 61.1177969 234.333067 60.8608977 234.231437 60.6039985 234.180623 60.3202844 234.180623 60.0097469 234.180623 59.6992094 234.231437 59.4140838 234.333067 59.1543616 234.434698 58.8946393 234.577261 58.6716203 234.76076 58.4852978 234.94426 58.2989753 235.164456 58.1535894 235.421355 58.0491359 235.678254 57.9446824 235.964791 57.8924564 236.280975 57.8924564 236.574574 57.8924564 236.855465 57.9446824 237.123656 58.0491359 237.391848 58.1535894 237.624747 58.3130904 237.822362 58.5276436L237.246459 59.0527316zM238.672833 57.9856172L239.435058 57.9856172 239.435058 62 238.672833 62 238.672833 57.9856172zM238.494981 56.5458597C238.494981 56.393414 238.55003 56.2621433 238.66013 56.1520436 238.770229 56.041944 238.9015 55.986895 239.053946 55.986895 239.206391 55.986895 239.337662 56.041944 239.447762 56.1520436 239.557861 56.2621433 239.61291 56.393414 239.61291 56.5458597 239.61291 56.6983054 239.557861 56.829576 239.447762 56.9396757 239.337662 57.0497754 239.206391 57.1048244 239.053946 57.1048244 238.9015 57.1048244 238.770229 57.0497754 238.66013 56.9396757 238.55003 56.829576 238.494981 56.6983054 238.494981 56.5458597zM241.420397 59.9928086C241.420397 60.1960695 241.45145 60.3838007 241.513558 60.5560079 241.575665 60.728215 241.663179 60.8750124 241.776102 60.9964043 241.889025 61.1177962 242.027353 61.2137791 242.191091 61.2843558 242.354829 61.3549325 242.538325 61.3902203 242.741586 61.3902203 242.944847 61.3902203 243.128344 61.3549325 243.292082 61.2843558 243.45582 61.2137791 243.594148 61.1177962 243.707071 60.9964043 243.819993 60.8750124 243.907507 60.728215 243.969615 60.5560079 244.031722 60.3838007 244.062776 60.1960695 244.062776 59.9928086 244.062776 59.7895477 244.031722 59.6018165 243.969615 59.4296093 243.907507 59.2574022 243.819993 59.1106048 243.707071 58.9892129 243.594148 58.867821 243.45582 58.7718381 243.292082 58.7012614 243.128344 58.6306847 242.944847 58.5953969 242.741586 58.5953969 242.538325 58.5953969 242.354829 58.6306847 242.191091 58.7012614 242.027353 58.7718381 241.889025 58.867821 241.776102 58.9892129 241.663179 59.1106048 241.575665 59.2574022 241.513558 59.4296093 241.45145 59.6018165 241.420397 59.7895477 241.420397 59.9928086zM240.607357 59.9928086C240.607357 59.6992095 240.662406 59.425376 240.772506 59.1712999 240.882606 58.9172238 241.033638 58.6942047 241.225606 58.5022361 241.417575 58.3102675 241.643417 58.1592356 241.903139 58.0491359 242.162862 57.9390363 242.442341 57.8839873 242.741586 57.8839873 243.040831 57.8839873 243.320311 57.9390363 243.580033 58.0491359 243.839756 58.1592356 244.065598 58.3102675 244.257566 58.5022361 244.449535 58.6942047 244.600567 58.9172238 244.710666 59.1712999 244.820766 59.425376 244.875815 59.6992095 244.875815 59.9928086 244.875815 60.2864077 244.820766 60.5616527 244.710666 60.8185519 244.600567 61.0754511 244.449535 61.2984701 244.257566 61.4876157 244.065598 61.6767613 243.839756 61.8263816 243.580033 61.9364813 243.320311 62.0465809 243.040831 62.1016299 242.741586 62.1016299 242.442341 62.1016299 242.162862 62.0465809 241.903139 61.9364813 241.643417 61.8263816 241.417575 61.6767613 241.225606 61.4876157 241.033638 61.2984701 240.882606 61.0754511 240.772506 60.8185519 240.662406 60.5616527 240.607357 60.2864077 240.607357 59.9928086zM243.071884 56.0038333L244.155936 56.0038333 242.894031 57.2233926 242.191091 57.2233926 243.071884 56.0038333zM245.98883 57.9856172L246.751055 57.9856172 246.751055 58.603866 246.767993 58.603866C246.863978 58.3893129 247.030536 58.2156968 247.267674 58.0830126 247.504812 57.9503284 247.778645 57.8839873 248.089183 57.8839873 248.281151 57.8839873 248.466059 57.913629 248.643913 57.9729135 248.821766 58.0321979 248.977032 58.1239462 249.109717 58.2481612 249.242401 58.3723762 249.348264 58.5318772 249.42731 58.7266689 249.506356 58.9214606 249.545878 59.1515372 249.545878 59.4169056L249.545878 62 248.783654 62 248.783654 59.6286346C248.783654 59.4423121 248.758247 59.2828112 248.707431 59.150127 248.656616 59.0174428 248.588864 58.9101678 248.504172 58.8282988 248.419479 58.7464299 248.322085 58.6871463 248.211985 58.6504464 248.101886 58.6137465 247.987553 58.5953969 247.868984 58.5953969 247.710893 58.5953969 247.564095 58.6208041 247.428588 58.6716193 247.293081 58.7224346 247.174514 58.8028908 247.072883 58.9129905 246.971253 59.0230901 246.892208 59.1628299 246.835747 59.332214 246.779285 59.5015981 246.751055 59.7020329 246.751055 59.9335245L246.751055 62 245.98883 62 245.98883 57.9856172zM256.235157 59.0527316C256.094004 58.9059321 255.945795 58.7944226 255.790526 58.7181997 255.635258 58.6419769 255.450349 58.603866 255.235796 58.603866 255.026889 58.603866 254.844804 58.6419769 254.689535 58.7181997 254.534267 58.7944226 254.404407 58.8988745 254.299954 59.0315587 254.1955 59.1642429 254.116456 59.3166863 254.062817 59.4888935 254.009179 59.6611006 253.98236 59.8403628 253.98236 60.0266853 253.98236 60.2130077 254.013414 60.3894469 254.075521 60.5560079 254.137629 60.7225689 254.225142 60.8679547 254.338065 60.9921697 254.450988 61.1163847 254.586493 61.2137791 254.744585 61.2843558 254.902677 61.3549325 255.080527 61.3902203 255.278142 61.3902203 255.492695 61.3902203 255.676192 61.3521095 255.828638 61.2758866 255.981083 61.1996638 256.122235 61.0881543 256.252096 60.9413548L256.794122 61.4833811C256.596507 61.7035804 256.366431 61.8616699 256.103885 61.9576542 255.84134 62.0536385 255.563272 62.1016299 255.269673 62.1016299 254.959135 62.1016299 254.675421 62.0508155 254.418522 61.949185 254.161623 61.8475546 253.940015 61.7049918 253.753693 61.5214923 253.56737 61.3379929 253.423396 61.1177969 253.321766 60.8608977 253.220135 60.6039985 253.169321 60.3202844 253.169321 60.0097469 253.169321 59.6992094 253.220135 59.4140838 253.321766 59.1543616 253.423396 58.8946393 253.565959 58.6716203 253.749458 58.4852978 253.932958 58.2989753 254.153154 58.1535894 254.410053 58.0491359 254.666952 57.9446824 254.953489 57.8924564 255.269673 57.8924564 255.563272 57.8924564 255.844163 57.9446824 256.112355 58.0491359 256.380546 58.1535894 256.613446 58.3130904 256.81106 58.5276436L256.235157 59.0527316zM258.220496 59.9928086C258.220496 60.1960695 258.25155 60.3838007 258.313657 60.5560079 258.375765 60.728215 258.463278 60.8750124 258.576201 60.9964043 258.689124 61.1177962 258.827452 61.2137791 258.99119 61.2843558 259.154928 61.3549325 259.338425 61.3902203 259.541686 61.3902203 259.744947 61.3902203 259.928443 61.3549325 260.092181 61.2843558 260.255919 61.2137791 260.394247 61.1177962 260.50717 60.9964043 260.620093 60.8750124 260.707607 60.728215 260.769714 60.5560079 260.831822 60.3838007 260.862875 60.1960695 260.862875 59.9928086 260.862875 59.7895477 260.831822 59.6018165 260.769714 59.4296093 260.707607 59.2574022 260.620093 59.1106048 260.50717 58.9892129 260.394247 58.867821 260.255919 58.7718381 260.092181 58.7012614 259.928443 58.6306847 259.744947 58.5953969 259.541686 58.5953969 259.338425 58.5953969 259.154928 58.6306847 258.99119 58.7012614 258.827452 58.7718381 258.689124 58.867821 258.576201 58.9892129 258.463278 59.1106048 258.375765 59.2574022 258.313657 59.4296093 258.25155 59.6018165 258.220496 59.7895477 258.220496 59.9928086zM257.407457 59.9928086C257.407457 59.6992095 257.462506 59.425376 257.572606 59.1712999 257.682705 58.9172238 257.833737 58.6942047 258.025706 58.5022361 258.217674 58.3102675 258.443516 58.1592356 258.703239 58.0491359 258.962961 57.9390363 259.24244 57.8839873 259.541686 57.8839873 259.840931 57.8839873 260.12041 57.9390363 260.380133 58.0491359 260.639855 58.1592356 260.865697 58.3102675 261.057666 58.5022361 261.249634 58.6942047 261.400666 58.9172238 261.510766 59.1712999 261.620865 59.425376 261.675914 59.6992095 261.675914 59.9928086 261.675914 60.2864077 261.620865 60.5616527 261.510766 60.8185519 261.400666 61.0754511 261.249634 61.2984701 261.057666 61.4876157 260.865697 61.6767613 260.639855 61.8263816 260.380133 61.9364813 260.12041 62.0465809 259.840931 62.1016299 259.541686 62.1016299 259.24244 62.1016299 258.962961 62.0465809 258.703239 61.9364813 258.443516 61.8263816 258.217674 61.6767613 258.025706 61.4876157 257.833737 61.2984701 257.682705 61.0754511 257.572606 60.8185519 257.462506 60.5616527 257.407457 60.2864077 257.407457 59.9928086zM262.848214 55.5973135L263.610439 55.5973135 263.610439 62 262.848214 62 262.848214 55.5973135zM265.595777 59.9928086C265.595777 60.1960695 265.626831 60.3838007 265.688938 60.5560079 265.751046 60.728215 265.83856 60.8750124 265.951482 60.9964043 266.064405 61.1177962 266.202733 61.2137791 266.366471 61.2843558 266.530209 61.3549325 266.713706 61.3902203 266.916967 61.3902203 267.120228 61.3902203 267.303724 61.3549325 267.467462 61.2843558 267.6312 61.2137791 267.769529 61.1177962 267.882451 60.9964043 267.995374 60.8750124 268.082888 60.728215 268.144995 60.5560079 268.207103 60.3838007 268.238156 60.1960695 268.238156 59.9928086 268.238156 59.7895477 268.207103 59.6018165 268.144995 59.4296093 268.082888 59.2574022 267.995374 59.1106048 267.882451 58.9892129 267.769529 58.867821 267.6312 58.7718381 267.467462 58.7012614 267.303724 58.6306847 267.120228 58.5953969 266.916967 58.5953969 266.713706 58.5953969 266.530209 58.6306847 266.366471 58.7012614 266.202733 58.7718381 266.064405 58.867821 265.951482 58.9892129 265.83856 59.1106048 265.751046 59.2574022 265.688938 59.4296093 265.626831 59.6018165 265.595777 59.7895477 265.595777 59.9928086zM264.782738 59.9928086C264.782738 59.6992095 264.837787 59.425376 264.947887 59.1712999 265.057986 58.9172238 265.209018 58.6942047 265.400987 58.5022361 265.592955 58.3102675 265.818797 58.1592356 266.07852 58.0491359 266.338242 57.9390363 266.617722 57.8839873 266.916967 57.8839873 267.216212 57.8839873 267.495692 57.9390363 267.755414 58.0491359 268.015136 58.1592356 268.240978 58.3102675 268.432947 58.5022361 268.624915 58.6942047 268.775947 58.9172238 268.886047 59.1712999 268.996147 59.425376 269.051196 59.6992095 269.051196 59.9928086 269.051196 60.2864077 268.996147 60.5616527 268.886047 60.8185519 268.775947 61.0754511 268.624915 61.2984701 268.432947 61.4876157 268.240978 61.6767613 268.015136 61.8263816 267.755414 61.9364813 267.495692 62.0465809 267.216212 62.1016299 266.916967 62.1016299 266.617722 62.1016299 266.338242 62.0465809 266.07852 61.9364813 265.818797 61.8263816 265.592955 61.6767613 265.400987 61.4876157 265.209018 61.2984701 265.057986 61.0754511 264.947887 60.8185519 264.837787 60.5616527 264.782738 60.2864077 264.782738 59.9928086zM270.164211 57.9856172L270.875621 57.9856172 270.875621 58.6123352 270.892559 58.6123352C270.909497 58.5558738 270.953254 58.4852982 271.023831 58.4006062 271.094408 58.3159141 271.184744 58.2354579 271.294844 58.159235 271.404944 58.0830122 271.534803 58.0180826 271.684425 57.9644443 271.834048 57.910806 271.999195 57.8839873 272.179871 57.8839873 272.479117 57.8839873 272.730366 57.9460938 272.933627 58.0703088 273.136888 58.1945238 273.303446 58.3808435 273.433307 58.6292735 273.563169 58.3808435 273.746665 58.1945238 273.983803 58.0703088 274.220941 57.9460938 274.460898 57.8839873 274.703682 57.8839873 275.014219 57.8839873 275.268292 57.9348017 275.465906 58.0364322 275.663521 58.1380626 275.818787 58.2721564 275.93171 58.4387174 276.044633 58.6052784 276.122266 58.7944211 276.164612 59.0061512 276.206958 59.2178813 276.228131 59.4366658 276.228131 59.6625113L276.228131 62 275.465906 62 275.465906 59.7641412C275.465906 59.6116956 275.456026 59.4648982 275.436264 59.3237448 275.416503 59.1825914 275.375569 59.0583783 275.313461 58.9511017 275.251354 58.8438251 275.16384 58.7577228 275.050917 58.6927922 274.937995 58.6278617 274.788374 58.5953969 274.602052 58.5953969 274.235053 58.5953969 273.972512 58.7083179 273.81442 58.9341634 273.656328 59.1600088 273.577283 59.4507805 273.577283 59.806487L273.577283 62 272.815059 62 272.815059 59.8996478C272.815059 59.7076792 272.805178 59.5326516 272.785417 59.3745598 272.765655 59.216468 272.726133 59.0795512 272.666848 58.9638054 272.607564 58.8480596 272.522873 58.7577228 272.412773 58.6927922 272.302674 58.6278617 272.154465 58.5953969 271.968142 58.5953969 271.832635 58.5953969 271.701364 58.6222156 271.574326 58.6758539 271.447288 58.7294922 271.335779 58.8099484 271.239794 58.917225 271.14381 59.0245016 271.067588 59.1614184 271.011127 59.3279794 270.954666 59.4945404 270.926435 59.6907407 270.926435 59.9165861L270.926435 62 270.164211 62 270.164211 57.9856172zM277.535937 55.5973135L278.298161 55.5973135 278.298161 58.5615202 278.3151 58.5615202C278.450607 58.3526132 278.645396 58.1874662 278.899472 58.0660743 279.153548 57.9446823 279.424559 57.8839873 279.712512 57.8839873 280.023049 57.8839873 280.30394 57.9376248 280.555193 58.0449013 280.806446 58.1521779 281.020996 58.3003868 281.198849 58.4895324 281.376703 58.6786779 281.51362 58.901697 281.609604 59.1585961 281.705588 59.4154953 281.75358 59.6935634 281.75358 59.9928086 281.75358 60.2920538 281.705588 60.5687104 281.609604 60.8227865 281.51362 61.0768626 281.376703 61.2998816 281.198849 61.4918503 281.020996 61.6838189 280.806446 61.8334393 280.555193 61.9407159 280.30394 62.0479925 280.023049 62.1016299 279.712512 62.1016299 279.441497 62.1016299 279.177544 62.0423464 278.920645 61.9237775 278.663746 61.8052087 278.461899 61.6386502 278.3151 61.424097L278.298161 61.424097 278.298161 62 277.535937 62 277.535937 55.5973135zM279.619351 61.3902203C279.822612 61.3902203 280.006108 61.3549325 280.169846 61.2843558 280.333584 61.2137791 280.471913 61.1177962 280.584835 60.9964043 280.697758 60.8750124 280.785272 60.728215 280.847379 60.5560079 280.909487 60.3838007 280.94054 60.1960695 280.94054 59.9928086 280.94054 59.7895477 280.909487 59.6018165 280.847379 59.4296093 280.785272 59.2574022 280.697758 59.1106048 280.584835 58.9892129 280.471913 58.867821 280.333584 58.7718381 280.169846 58.7012614 280.006108 58.6306847 279.822612 58.5953969 279.619351 58.5953969 279.41609 58.5953969 279.232593 58.6306847 279.068855 58.7012614 278.905117 58.7718381 278.766789 58.867821 278.653866 58.9892129 278.540944 59.1106048 278.45343 59.2574022 278.391322 59.4296093 278.329215 59.6018165 278.298161 59.7895477 278.298161 59.9928086 278.298161 60.1960695 278.329215 60.3838007 278.391322 60.5560079 278.45343 60.728215 278.540944 60.8750124 278.653866 60.9964043 278.766789 61.1177962 278.905117 61.2137791 279.068855 61.2843558 279.232593 61.3549325 279.41609 61.3902203 279.619351 61.3902203zM282.925879 57.9856172L283.688104 57.9856172 283.688104 62 282.925879 62 282.925879 57.9856172zM282.748027 56.5458597C282.748027 56.393414 282.803076 56.2621433 282.913175 56.1520436 283.023275 56.041944 283.154546 55.986895 283.306991 55.986895 283.459437 55.986895 283.590708 56.041944 283.700807 56.1520436 283.810907 56.2621433 283.865956 56.393414 283.865956 56.5458597 283.865956 56.6983054 283.810907 56.829576 283.700807 56.9396757 283.590708 57.0497754 283.459437 57.1048244 283.306991 57.1048244 283.154546 57.1048244 283.023275 57.0497754 282.913175 56.9396757 282.803076 56.829576 282.748027 56.6983054 282.748027 56.5458597zM285.072132 58.4768286C285.286685 58.2792138 285.535112 58.131005 285.817418 58.0321976 286.099725 57.9333902 286.382028 57.8839873 286.664335 57.8839873 286.957934 57.8839873 287.210594 57.9206866 287.422325 57.9940864 287.634055 58.0674861 287.807671 58.166292 287.943178 58.290507 288.078685 58.414722 288.178903 58.5572848 288.243833 58.7181997 288.308764 58.8791146 288.341229 59.0470846 288.341229 59.2221149L288.341229 61.2716521C288.341229 61.4128055 288.344052 61.5426647 288.349698 61.6612335 288.355344 61.7798024 288.363813 61.8927234 288.375105 62L287.697572 62C287.680634 61.7967391 287.672165 61.5934812 287.672165 61.3902203L287.655226 61.3902203C287.485842 61.6499426 287.285408 61.8334393 287.053916 61.9407159 286.822424 62.0479925 286.554237 62.1016299 286.249346 62.1016299 286.063023 62.1016299 285.885172 62.0762227 285.715788 62.0254075 285.546404 61.9745923 285.398195 61.8983706 285.271157 61.7967401 285.144119 61.6951097 285.043902 61.569485 284.970502 61.4198624 284.897102 61.2702398 284.860403 61.0966237 284.860403 60.8990089 284.860403 60.6392867 284.918275 60.4219137 285.034021 60.2468835 285.149767 60.0718532 285.307856 59.9292904 285.508294 59.8191908 285.708732 59.7090911 285.943043 59.6300464 286.211234 59.5820542 286.479426 59.5340621 286.765963 59.5100664 287.070854 59.5100664L287.629819 59.5100664 287.629819 59.3406831C287.629819 59.2390527 287.610058 59.1374238 287.570535 59.0357933 287.531012 58.9341628 287.471728 58.8424145 287.392682 58.7605455 287.313637 58.6786766 287.214831 58.613747 287.096262 58.5657548 286.977693 58.5177627 286.836542 58.4937669 286.672804 58.4937669 286.526004 58.4937669 286.397556 58.5078821 286.287457 58.5361127 286.177357 58.5643434 286.07714 58.5996312 285.986802 58.6419773 285.896463 58.6843233 285.814596 58.7337262 285.741196 58.7901876 285.667796 58.846649 285.59722 58.9002865 285.529467 58.9511017L285.072132 58.4768286zM287.223299 60.0690311C287.042623 60.0690311 286.857715 60.0789117 286.668569 60.0986731 286.479424 60.1184346 286.307219 60.1565455 286.15195 60.2130068 285.996681 60.2694682 285.869645 60.3485129 285.770838 60.4501434 285.672031 60.5517738 285.622628 60.681633 285.622628 60.8397248 285.622628 61.0712164 285.700261 61.2377749 285.85553 61.3394054 286.010798 61.4410358 286.221114 61.4918503 286.486482 61.4918503 286.695389 61.4918503 286.87324 61.4565625 287.020039 61.3859858 287.166839 61.3154091 287.285406 61.2236607 287.375744 61.110738 287.466082 60.9978153 287.531012 60.8721906 287.570535 60.7338603 287.610058 60.5955299 287.629819 60.4586132 287.629819 60.3231059L287.629819 60.0690311 287.223299 60.0690311zM289.606689 57.9856172L290.368913 57.9856172 290.368913 58.603866 290.385852 58.603866C290.481836 58.3893129 290.648395 58.2156968 290.885532 58.0830126 291.12267 57.9503284 291.396504 57.8839873 291.707041 57.8839873 291.89901 57.8839873 292.083918 57.913629 292.261771 57.9729135 292.439624 58.0321979 292.594891 58.1239462 292.727575 58.2481612 292.860259 58.3723762 292.966123 58.5318772 293.045169 58.7266689 293.124215 58.9214606 293.163737 59.1515372 293.163737 59.4169056L293.163737 62 292.401512 62 292.401512 59.6286346C292.401512 59.4423121 292.376105 59.2828112 292.32529 59.150127 292.274475 59.0174428 292.206722 58.9101678 292.12203 58.8282988 292.037338 58.7464299 291.939944 58.6871463 291.829844 58.6504464 291.719744 58.6137465 291.605412 58.5953969 291.486843 58.5953969 291.328751 58.5953969 291.181954 58.6208041 291.046446 58.6716193 290.910939 58.7224346 290.792372 58.8028908 290.690742 58.9129905 290.589111 59.0230901 290.510066 59.1628299 290.453605 59.332214 290.397144 59.5015981 290.368913 59.7020329 290.368913 59.9335245L290.368913 62 289.606689 62 289.606689 57.9856172zM294.488481 58.4768286C294.703034 58.2792138 294.951461 58.131005 295.233767 58.0321976 295.516074 57.9333902 295.798377 57.8839873 296.080684 57.8839873 296.374283 57.8839873 296.626944 57.9206866 296.838674 57.9940864 297.050404 58.0674861 297.22402 58.166292 297.359527 58.290507 297.495034 58.414722 297.595252 58.5572848 297.660182 58.7181997 297.725113 58.8791146 297.757578 59.0470846 297.757578 59.2221149L297.757578 61.2716521C297.757578 61.4128055 297.760401 61.5426647 297.766047 61.6612335 297.771693 61.7798024 297.780162 61.8927234 297.791454 62L297.113921 62C297.096983 61.7967391 297.088514 61.5934812 297.088514 61.3902203L297.071576 61.3902203C296.902192 61.6499426 296.701757 61.8334393 296.470265 61.9407159 296.238774 62.0479925 295.970586 62.1016299 295.665695 62.1016299 295.479372 62.1016299 295.301522 62.0762227 295.132138 62.0254075 294.962753 61.9745923 294.814545 61.8983706 294.687507 61.7967401 294.560468 61.6951097 294.460251 61.569485 294.386851 61.4198624 294.313452 61.2702398 294.276752 61.0966237 294.276752 60.8990089 294.276752 60.6392867 294.334624 60.4219137 294.45037 60.2468835 294.566116 60.0718532 294.724205 59.9292904 294.924643 59.8191908 295.125081 59.7090911 295.359392 59.6300464 295.627584 59.5820542 295.895775 59.5340621 296.182312 59.5100664 296.487203 59.5100664L297.046168 59.5100664 297.046168 59.3406831C297.046168 59.2390527 297.026407 59.1374238 296.986884 59.0357933 296.947361 58.9341628 296.888078 58.8424145 296.809032 58.7605455 296.729986 58.6786766 296.63118 58.613747 296.512611 58.5657548 296.394042 58.5177627 296.252891 58.4937669 296.089153 58.4937669 295.942353 58.4937669 295.813906 58.5078821 295.703806 58.5361127 295.593706 58.5643434 295.493489 58.5996312 295.403151 58.6419773 295.312813 58.6843233 295.230945 58.7337262 295.157545 58.7901876 295.084145 58.846649 295.01357 58.9002865 294.945816 58.9511017L294.488481 58.4768286zM296.639648 60.0690311C296.458972 60.0690311 296.274064 60.0789117 296.084918 60.0986731 295.895773 60.1184346 295.723568 60.1565455 295.568299 60.2130068 295.413031 60.2694682 295.285994 60.3485129 295.187187 60.4501434 295.08838 60.5517738 295.038977 60.681633 295.038977 60.8397248 295.038977 61.0712164 295.11661 61.2377749 295.271879 61.3394054 295.427147 61.4410358 295.637463 61.4918503 295.902831 61.4918503 296.111738 61.4918503 296.289589 61.4565625 296.436388 61.3859858 296.583188 61.3154091 296.701755 61.2236607 296.792093 61.110738 296.882431 60.9978153 296.947361 60.8721906 296.986884 60.7338603 297.026407 60.5955299 297.046168 60.4586132 297.046168 60.3231059L297.046168 60.0690311 296.639648 60.0690311zM208.762226 68.5047778L211.662919 68.5047778C212.044034 68.5047778 212.405735 68.5418301 212.748033 68.6159358 213.09033 68.6900415 213.390277 68.8135491 213.647883 68.9864623 213.905488 69.1593755 214.110158 69.3922756 214.261898 69.6851695 214.413638 69.9780633 214.489507 70.3432929 214.489507 70.7808693 214.489507 71.3101956 214.351885 71.7601161 214.076635 72.1306445 213.801385 72.5011729 213.399103 72.7358373 212.869777 72.8346449L214.775342 76 212.795672 76 211.228874 73.0040284 210.413716 73.0040284 210.413716 76 208.762226 76 208.762226 68.5047778zM210.413716 71.6066141L211.387671 71.6066141C211.535882 71.6066141 211.692913 71.6013209 211.858769 71.5907344 212.024625 71.5801479 212.174598 71.5483888 212.308694 71.4954562 212.44279 71.4425235 212.553947 71.359597 212.642168 71.2466741 212.730389 71.1337511 212.774499 70.9749556 212.774499 70.7702828 212.774499 70.5797254 212.735682 70.4279875 212.658048 70.3150645 212.580413 70.2021416 212.481607 70.1156863 212.361626 70.055696 212.241646 69.9957057 212.104023 69.9551246 211.948754 69.9339515 211.793485 69.9127785 211.641747 69.9021921 211.493536 69.9021921L210.413716 69.9021921 210.413716 71.6066141zM215.841779 68.5047778L220.933872 68.5047778 220.933872 70.0292298 217.493268 70.0292298 217.493268 71.4266441 220.743315 71.4266441 220.743315 72.9510961 217.493268 72.9510961 217.493268 74.475548 221.124428 74.475548 221.124428 76 215.841779 76 215.841779 68.5047778zM222.603737 68.5047778L225.080972 68.5047778C225.680875 68.5047778 226.250774 68.5718248 226.790687 68.7059208 227.3306 68.8400168 227.801693 69.0570373 228.203981 69.3569888 228.606269 69.6569404 228.925624 70.0468715 229.162057 70.526794 229.398489 71.0067164 229.516703 71.5889666 229.516703 72.2735619 229.516703 72.8805226 229.402018 73.4151341 229.172643 73.8774124 228.943268 74.3396906 228.634499 74.7278574 228.246327 75.0419243 227.858154 75.3559912 227.409998 75.5941844 226.901845 75.7565111 226.393692 75.9188379 225.860845 76 225.303288 76L222.603737 76 222.603737 68.5047778zM224.255227 74.475548L225.112731 74.475548C225.493846 74.475548 225.848489 74.4367314 226.176671 74.3590968 226.504854 74.2814623 226.788921 74.1526615 227.028882 73.9726906 227.268844 73.7927197 227.457634 73.5562908 227.595259 73.263397 227.732884 72.9705031 227.801695 72.6123311 227.801695 72.1888701 227.801695 71.8218705 227.732884 71.5025152 227.595259 71.2307944 227.457634 70.9590736 227.272373 70.7349955 227.039469 70.5585534 226.806565 70.3821113 226.533084 70.2497817 226.219017 70.1615607 225.90495 70.0733397 225.575009 70.0292298 225.229182 70.0292298L224.255227 70.0292298 224.255227 74.475548zM236.551113 68.5047778L237.916768 68.5047778 241.177401 76 239.314182 76 238.668408 74.4120292 235.757128 74.4120292 235.132526 76 233.311653 76 236.551113 68.5047778zM237.186301 70.6855911L236.275865 73.0146149 238.107324 73.0146149 237.186301 70.6855911zM246.986577 70.4526887C246.824251 70.2550735 246.624874 70.1033356 246.388442 69.9974704 246.152009 69.8916051 245.878528 69.8386733 245.56799 69.8386733 245.257452 69.8386733 244.969856 69.8986627 244.705193 70.0186433 244.44053 70.1386239 244.211158 70.3062414 244.017072 70.5215007 243.822986 70.7367601 243.671248 70.9925973 243.561854 71.28902 243.45246 71.5854427 243.397763 71.9065624 243.397763 72.2523889 243.397763 72.6052731 243.45246 72.9281572 243.561854 73.2210511 243.671248 73.513945 243.821221 73.7680177 244.011779 73.9832771 244.202336 74.1985364 244.426414 74.3661539 244.68402 74.4861345 244.941625 74.6061151 245.218635 74.6661045 245.515058 74.6661045 245.853827 74.6661045 246.153774 74.5955288 246.414908 74.4543751 246.676042 74.3132214 246.891298 74.1156093 247.060683 73.8615327L248.436924 74.8884204C248.119328 75.3330545 247.717046 75.6612318 247.230066 75.8729623 246.743086 76.0846928 246.241998 76.1905565 245.726787 76.1905565 245.141 76.1905565 244.601095 76.098808 244.107057 75.9153082 243.613019 75.7318085 243.186036 75.4689137 242.826094 75.1266161 242.466152 74.7843184 242.185613 74.3696857 241.984469 73.8827056 241.783325 73.3957255 241.682755 72.852292 241.682755 72.2523889 241.682755 71.6524858 241.783325 71.1090524 241.984469 70.6220722 242.185613 70.1350921 242.466152 69.7204594 242.826094 69.3781618 243.186036 69.0358641 243.613019 68.7729694 244.107057 68.5894696 244.601095 68.4059698 245.141 68.3142213 245.726787 68.3142213 245.938518 68.3142213 246.159067 68.3336297 246.388442 68.3724469 246.617816 68.4112642 246.843659 68.473018 247.065976 68.5577102 247.288293 68.6424024 247.501785 68.7553236 247.706458 68.8964773 247.91113 69.037631 248.094627 69.2105416 248.256954 69.4152144L246.986577 70.4526887zM251.959422 68.5047778L253.325077 68.5047778 256.58571 76 254.722491 76 254.076717 74.4120292 251.165437 74.4120292 250.540835 76 248.719962 76 251.959422 68.5047778zM252.59461 70.6855911L251.684174 73.0146149 253.515634 73.0146149 252.59461 70.6855911zM257.49335 68.5047778L259.970584 68.5047778C260.570487 68.5047778 261.140387 68.5718248 261.6803 68.7059208 262.220212 68.8400168 262.691306 69.0570373 263.093594 69.3569888 263.495882 69.6569404 263.815237 70.0468715 264.051669 70.526794 264.288102 71.0067164 264.406316 71.5889666 264.406316 72.2735619 264.406316 72.8805226 264.291631 73.4151341 264.062256 73.8774124 263.832881 74.3396906 263.524112 74.7278574 263.13594 75.0419243 262.747767 75.3559912 262.299611 75.5941844 261.791458 75.7565111 261.283304 75.9188379 260.750457 76 260.1929 76L257.49335 76 257.49335 68.5047778zM259.14484 74.475548L260.002344 74.475548C260.383459 74.475548 260.738102 74.4367314 261.066284 74.3590968 261.394467 74.2814623 261.678534 74.1526615 261.918495 73.9726906 262.158456 73.7927197 262.347247 73.5562908 262.484871 73.263397 262.622496 72.9705031 262.691308 72.6123311 262.691308 72.1888701 262.691308 71.8218705 262.622496 71.5025152 262.484871 71.2307944 262.347247 70.9590736 262.161985 70.7349955 261.929082 70.5585534 261.696178 70.3821113 261.422697 70.2497817 261.10863 70.1615607 260.794563 70.0733397 260.464621 70.0292298 260.118795 70.0292298L259.14484 70.0292298 259.14484 74.475548zM265.748001 68.5047778L270.840094 68.5047778 270.840094 70.0292298 267.399491 70.0292298 267.399491 71.4266441 270.649538 71.4266441 270.649538 72.9510961 267.399491 72.9510961 267.399491 74.475548 271.030651 74.475548 271.030651 76 265.748001 76 265.748001 68.5047778zM268.267581 66.4298293L270.427222 66.4298293 268.595762 67.9542813 267.198348 67.9542813 268.267581 66.4298293zM272.50996 68.5047778L275.008367 68.5047778 276.733962 73.3957279 276.755135 73.3957279 278.491316 68.5047778 280.979137 68.5047778 280.979137 76 279.327648 76 279.327648 70.2515457 279.306475 70.2515457 277.337391 76 276.077601 76 274.182622 70.2515457 274.161449 70.2515457 274.161449 76 272.50996 76 272.50996 68.5047778zM282.638416 68.5047778L284.289906 68.5047778 284.289906 76 282.638416 76 282.638416 68.5047778zM290.850721 70.4526887C290.688395 70.2550735 290.489018 70.1033356 290.252586 69.9974704 290.016153 69.8916051 289.742672 69.8386733 289.432134 69.8386733 289.121596 69.8386733 288.834 69.8986627 288.569337 70.0186433 288.304674 70.1386239 288.075302 70.3062414 287.881216 70.5215007 287.68713 70.7367601 287.535392 70.9925973 287.425998 71.28902 287.316604 71.5854427 287.261907 71.9065624 287.261907 72.2523889 287.261907 72.6052731 287.316604 72.9281572 287.425998 73.2210511 287.535392 73.513945 287.685365 73.7680177 287.875923 73.9832771 288.06648 74.1985364 288.290558 74.3661539 288.548164 74.4861345 288.805769 74.6061151 289.082779 74.6661045 289.379202 74.6661045 289.717971 74.6661045 290.017918 74.5955288 290.279052 74.4543751 290.540186 74.3132214 290.755442 74.1156093 290.924827 73.8615327L292.301068 74.8884204C291.983472 75.3330545 291.58119 75.6612318 291.09421 75.8729623 290.60723 76.0846928 290.106142 76.1905565 289.590931 76.1905565 289.005143 76.1905565 288.465239 76.098808 287.971201 75.9153082 287.477163 75.7318085 287.05018 75.4689137 286.690238 75.1266161 286.330296 74.7843184 286.049757 74.3696857 285.848613 73.8827056 285.647469 73.3957255 285.546899 72.852292 285.546899 72.2523889 285.546899 71.6524858 285.647469 71.1090524 285.848613 70.6220722 286.049757 70.1350921 286.330296 69.7204594 286.690238 69.3781618 287.05018 69.0358641 287.477163 68.7729694 287.971201 68.5894696 288.465239 68.4059698 289.005143 68.3142213 289.590931 68.3142213 289.802662 68.3142213 290.023211 68.3336297 290.252586 68.3724469 290.48196 68.4112642 290.707803 68.473018 290.93012 68.5577102 291.152437 68.6424024 291.365929 68.7553236 291.570601 68.8964773 291.775274 69.037631 291.958771 69.2105416 292.121098 69.4152144L290.850721 70.4526887zM295.823566 68.5047778L297.189221 68.5047778 300.449854 76 298.586635 76 297.94086 74.4120292 295.029581 74.4120292 294.404979 76 292.584106 76 295.823566 68.5047778zM296.458754 70.6855911L295.548318 73.0146149 297.379777 73.0146149 296.458754 70.6855911zM304.64709 68.5047778L307.124324 68.5047778C307.724227 68.5047778 308.294126 68.5718248 308.834039 68.7059208 309.373952 68.8400168 309.845045 69.0570373 310.247333 69.3569888 310.649621 69.6569404 310.968977 70.0468715 311.205409 70.526794 311.441841 71.0067164 311.560056 71.5889666 311.560056 72.2735619 311.560056 72.8805226 311.44537 73.4151341 311.215995 73.8774124 310.986621 74.3396906 310.677852 74.7278574 310.289679 75.0419243 309.901507 75.3559912 309.45335 75.5941844 308.945197 75.7565111 308.437044 75.9188379 307.904197 76 307.34664 76L304.64709 76 304.64709 68.5047778zM306.298579 74.475548L307.156083 74.475548C307.537198 74.475548 307.891842 74.4367314 308.220024 74.3590968 308.548206 74.2814623 308.832274 74.1526615 309.072235 73.9726906 309.312196 73.7927197 309.500986 73.5562908 309.638611 73.263397 309.776236 72.9705031 309.845047 72.6123311 309.845047 72.1888701 309.845047 71.8218705 309.776236 71.5025152 309.638611 71.2307944 309.500986 70.9590736 309.315725 70.7349955 309.082821 70.5585534 308.849918 70.3821113 308.576437 70.2497817 308.26237 70.1615607 307.948303 70.0733397 307.618361 70.0292298 307.272535 70.0292298L306.298579 70.0292298 306.298579 74.475548zM312.901741 68.5047778L317.993834 68.5047778 317.993834 70.0292298 314.55323 70.0292298 314.55323 71.4266441 317.803277 71.4266441 317.803277 72.9510961 314.55323 72.9510961 314.55323 74.475548 318.18439 74.475548 318.18439 76 312.901741 76 312.901741 68.5047778zM322.953295 68.5047778L325.430529 68.5047778C326.030432 68.5047778 326.600332 68.5718248 327.140245 68.7059208 327.680157 68.8400168 328.151251 69.0570373 328.553539 69.3569888 328.955827 69.6569404 329.275182 70.0468715 329.511614 70.526794 329.748047 71.0067164 329.866261 71.5889666 329.866261 72.2735619 329.866261 72.8805226 329.751575 73.4151341 329.522201 73.8774124 329.292826 74.3396906 328.984057 74.7278574 328.595884 75.0419243 328.207712 75.3559912 327.759556 75.5941844 327.251403 75.7565111 326.743249 75.9188379 326.210402 76 325.652845 76L322.953295 76 322.953295 68.5047778zM324.604785 74.475548L325.462289 74.475548C325.843404 74.475548 326.198047 74.4367314 326.526229 74.3590968 326.854411 74.2814623 327.138479 74.1526615 327.37844 73.9726906 327.618401 73.7927197 327.807192 73.5562908 327.944816 73.263397 328.082441 72.9705031 328.151253 72.6123311 328.151253 72.1888701 328.151253 71.8218705 328.082441 71.5025152 327.944816 71.2307944 327.807192 70.9590736 327.62193 70.7349955 327.389027 70.5585534 327.156123 70.3821113 326.882642 70.2497817 326.568575 70.1615607 326.254508 70.0733397 325.924566 70.0292298 325.57874 70.0292298L324.604785 70.0292298 324.604785 74.475548zM331.123254 68.5047778L332.774744 68.5047778 332.774744 76 331.123254 76 331.123254 68.5047778zM338.139288 70.3362375C338.005192 70.1668531 337.823459 70.0415811 337.594085 69.9604177 337.36471 69.8792544 337.14769 69.8386733 336.943017 69.8386733 336.823036 69.8386733 336.699528 69.8527885 336.57249 69.8810192 336.445452 69.9092499 336.325473 69.9533598 336.21255 70.0133501 336.099627 70.0733404 336.007879 70.1527381 335.937302 70.2515457 335.866725 70.3503533 335.831437 70.4703321 335.831437 70.6114858 335.831437 70.8373316 335.916128 71.0102423 336.085512 71.1302229 336.254897 71.2502035 336.468389 71.3525384 336.725994 71.4372306 336.983599 71.5219228 337.260609 71.6066137 337.557032 71.6913059 337.853455 71.7759981 338.130465 71.8959769 338.38807 72.0512459 338.645676 72.206515 338.859167 72.4147135 339.028552 72.6758478 339.197936 72.9369821 339.282627 73.2863322 339.282627 73.7239085 339.282627 74.1403118 339.204994 74.5037771 339.049725 74.8143151 338.894456 75.1248532 338.684493 75.3824548 338.41983 75.5871276 338.155166 75.7918004 337.848162 75.9435383 337.498806 76.0423459 337.149451 76.1411535 336.780693 76.1905565 336.39252 76.1905565 335.90554 76.1905565 335.453855 76.1164519 335.037452 75.9682406 334.621048 75.8200292 334.232882 75.5800716 333.87294 75.2483605L335.048038 73.9568109C335.217423 74.1826568 335.430914 74.3573318 335.68852 74.4808413 335.946125 74.6043507 336.212549 74.6661045 336.487798 74.6661045 336.621894 74.6661045 336.757753 74.650225 336.895378 74.6184654 337.033002 74.5867058 337.15651 74.5390672 337.265904 74.475548 337.375298 74.4120289 337.463518 74.3308667 337.530566 74.2320592 337.597614 74.1332516 337.631137 74.0168016 337.631137 73.8827056 337.631137 73.6568597 337.544682 73.4786559 337.371769 73.3480888 337.198856 73.2175216 336.981835 73.1063648 336.720701 73.0146149 336.459566 72.922865 336.177263 72.8311165 335.873783 72.7393666 335.570303 72.6476167 335.288 72.5241091 335.026865 72.3688401 334.765731 72.2135711 334.54871 72.0089013 334.375797 71.7548247 334.202884 71.5007481 334.116429 71.1655132 334.116429 70.7491099 334.116429 70.3468219 334.195826 69.9939431 334.354624 69.6904627 334.513422 69.3869823 334.725149 69.1329095 334.989813 68.9282367 335.254476 68.7235639 335.559716 68.5700616 335.905542 68.4677252 336.251369 68.3653888 336.607777 68.3142213 336.974776 68.3142213 337.398237 68.3142213 337.807577 68.3742107 338.202807 68.4941914 338.598037 68.614172 338.954445 68.8153129 339.272041 69.0976203L338.139288 70.3362375zM340.730177 68.5047778L345.82227 68.5047778 345.82227 70.0292298 342.381666 70.0292298 342.381666 71.4266441 345.631713 71.4266441 345.631713 72.9510961 342.381666 72.9510961 342.381666 74.475548 346.012826 74.475548 346.012826 76 340.730177 76 340.730177 68.5047778zM347.492135 68.5047778L349.736467 68.5047778 352.922995 73.713322 352.944168 73.713322 352.944168 68.5047778 354.595658 68.5047778 354.595658 76 352.436018 76 349.164798 70.6644181 349.143625 70.6644181 349.143625 76 347.492135 76 347.492135 68.5047778zM348.974241 67.8907624C349.002472 67.7143204 349.051875 67.5378809 349.122452 67.3614388 349.193029 67.1849968 349.283013 67.0279657 349.392407 66.8903408 349.501801 66.752716 349.63413 66.6415592 349.7894 66.556867 349.944669 66.4721748 350.121108 66.4298293 350.318723 66.4298293 350.495165 66.4298293 350.653961 66.451002 350.795114 66.4933481 350.936268 66.5356942 351.084477 66.5886261 351.239746 66.6521452 351.338554 66.6874336 351.435595 66.7227215 351.530874 66.7580099 351.626153 66.7932984 351.726723 66.8109423 351.832589 66.8109423 351.952569 66.8109423 352.047847 66.77389 352.118423 66.6997843 352.189 66.6256787 352.24899 66.5356946 352.298393 66.4298293L353.124138 66.4298293C353.08885 66.6345021 353.039447 66.8250567 352.975928 67.0014988 352.912408 67.1779409 352.825953 67.3314432 352.716559 67.4620103 352.607165 67.5925775 352.473071 67.6966767 352.314273 67.7743113 352.155475 67.8519458 351.966685 67.8907624 351.747897 67.8907624 351.592628 67.8907624 351.446183 67.8678253 351.308558 67.8219504 351.170933 67.7760754 351.042133 67.724908 350.922152 67.6684465 350.802171 67.6119851 350.687486 67.5608176 350.578092 67.5149427 350.468698 67.4690678 350.36107 67.4461306 350.255204 67.4461306 350.135224 67.4461306 350.039946 67.4955337 349.96937 67.5943412 349.898793 67.6931488 349.845861 67.7919549 349.810572 67.8907624L348.974241 67.8907624zM355.873824 72.2523889C355.873824 71.6524858 355.974394 71.1090524 356.175538 70.6220722 356.376682 70.1350921 356.657221 69.7204594 357.017163 69.3781618 357.377105 69.0358641 357.804088 68.7729694 358.298126 68.5894696 358.792164 68.4059698 359.332068 68.3142213 359.917856 68.3142213 360.503644 68.3142213 361.043549 68.4059698 361.537586 68.5894696 362.031624 68.7729694 362.458608 69.0358641 362.818549 69.3781618 363.178491 69.7204594 363.45903 70.1350921 363.660174 70.6220722 363.861318 71.1090524 363.961888 71.6524858 363.961888 72.2523889 363.961888 72.852292 363.861318 73.3957255 363.660174 73.8827056 363.45903 74.3696857 363.178491 74.7843184 362.818549 75.1266161 362.458608 75.4689137 362.031624 75.7318085 361.537586 75.9153082 361.043549 76.098808 360.503644 76.1905565 359.917856 76.1905565 359.332068 76.1905565 358.792164 76.098808 358.298126 75.9153082 357.804088 75.7318085 357.377105 75.4689137 357.017163 75.1266161 356.657221 74.7843184 356.376682 74.3696857 356.175538 73.8827056 355.974394 73.3957255 355.873824 72.852292 355.873824 72.2523889zM357.588832 72.2523889C357.588832 72.6052731 357.643529 72.9281572 357.752923 73.2210511 357.862317 73.513945 358.019348 73.7680177 358.224021 73.9832771 358.428693 74.1985364 358.673944 74.3661539 358.95978 74.4861345 359.245617 74.6061151 359.564972 74.6661045 359.917856 74.6661045 360.27074 74.6661045 360.590096 74.6061151 360.875932 74.4861345 361.161768 74.3661539 361.407019 74.1985364 361.611692 73.9832771 361.816364 73.7680177 361.973396 73.513945 362.08279 73.2210511 362.192184 72.9281572 362.24688 72.6052731 362.24688 72.2523889 362.24688 71.9065624 362.192184 71.5854427 362.08279 71.28902 361.973396 70.9925973 361.816364 70.7367601 361.611692 70.5215007 361.407019 70.3062414 361.161768 70.1386239 360.875932 70.0186433 360.590096 69.8986627 360.27074 69.8386733 359.917856 69.8386733 359.564972 69.8386733 359.245617 69.8986627 358.95978 70.0186433 358.673944 70.1386239 358.428693 70.3062414 358.224021 70.5215007 358.019348 70.7367601 357.862317 70.9925973 357.752923 71.28902 357.643529 71.5854427 357.588832 71.9065624 357.588832 72.2523889z"/>
  </g>
</svg>
