<svg xmlns="http://www.w3.org/2000/svg" width="32" height="24" viewBox="0 0 32 24">
  <path fill="none" stroke="#FFF" stroke-width="1.316" d="M67.3255965,4.78306184 C68.4422124,4.0987943 69.2990064,3.01378672 69.7026584,1.72128135 C68.6571842,2.35486242 67.5019043,2.81579264 66.2677499,3.06288926 C65.284138,1.9873854 63.8783155,1.31578947 62.3224767,1.31578947 C59.3391635,1.31578947 56.918798,3.79467538 56.918798,6.85170402 C56.918798,7.28570704 56.9651948,7.70703845 57.0579884,8.11253033 C52.5652332,7.88127324 48.5828426,5.67957905 45.9150276,2.32635127 C45.4495132,3.14683875 45.183505,4.0987943 45.183505,5.112524 C45.183505,7.03227462 46.1377321,8.72710396 47.5884049,9.72024228 C46.7037729,9.69331509 45.8686308,9.44146661 45.1386547,9.02963892 L45.1386547,9.09774889 C45.1386547,11.7809647 47.0022589,14.0190898 49.476754,14.5259546 C49.0236121,14.6558388 48.5457252,14.7207808 48.0523727,14.7207808 C47.7043969,14.7207808 47.3641538,14.6875178 47.0347366,14.6225758 C47.7229556,16.8211021 49.7180173,18.4224782 52.0842532,18.4652449 C50.2345681,19.9509925 47.9023565,20.836422 45.3706387,20.836422 C44.9345089,20.836422 44.5030188,20.8110788 44.0808081,20.7603923 C46.4733355,22.3285054 49.3159118,23.245614 52.3672736,23.245614 C62.3116508,23.245614 67.7478072,14.8110661 67.7478072,7.4947888 C67.7478072,7.25402799 67.7431676,7.01326719 67.7338882,6.77725824 C68.7901883,5.99636958 69.7072981,5.0222387 70.4295413,3.91188788 C69.4613951,4.35222672 68.419014,4.65000982 67.3255965,4.78306184 Z" transform="translate(-41)"/>
</svg>
