<svg xmlns="http://www.w3.org/2000/svg" width="185" height="37" viewBox="0 0 185 37">
  <g fill="none" fill-rule="evenodd" transform="translate(1 1)">
    <rect width="183" height="35" fill="#FFF" stroke="#B3B3B3" stroke-linecap="square" rx="5"/>
    <path fill="#333" d="M39.512,13.421 C39.3299991,13.1263319 39.0873349,12.911834 38.784,12.7775 C38.4806652,12.643166 38.164335,12.576 37.835,12.576 C37.5923321,12.576 37.3540012,12.606333 37.12,12.667 C36.8859988,12.727667 36.6758343,12.8186661 36.4895,12.94 C36.3031657,13.0613339 36.1536672,13.2216657 36.041,13.421 C35.9283328,13.6203343 35.872,13.854332 35.872,14.123 C35.872,14.331001 35.9044997,14.5151659 35.9695,14.6755 C36.0345003,14.8358341 36.1406659,14.9809993 36.288,15.111 C36.4353341,15.2410006 36.6346654,15.3623328 36.886,15.475 C37.1373346,15.5876672 37.4449982,15.7003328 37.809,15.813 C38.1643351,15.9256672 38.5088317,16.0469993 38.8425,16.177 C39.1761683,16.3070006 39.4708321,16.4716657 39.7265,16.671 C39.9821679,16.8703343 40.1858326,17.1194985 40.3375,17.4185 C40.4891674,17.7175015 40.565,18.0923311 40.565,18.543 C40.565,19.0023356 40.4740009,19.4009983 40.292,19.739 C40.1099991,20.0770017 39.8695015,20.3564989 39.5705,20.5775 C39.2714985,20.7985011 38.927002,20.9631661 38.537,21.0715 C38.1469981,21.1798339 37.7440021,21.234 37.328,21.234 C37.059332,21.234 36.790668,21.2101669 36.522,21.1625 C36.253332,21.1148331 35.9955012,21.0411672 35.7485,20.9415 C35.5014988,20.8418328 35.2696678,20.7118341 35.053,20.5515 C34.8363323,20.3911659 34.6500008,20.1940012 34.494,19.96 L35.43,19.193 C35.6293343,19.5310017 35.9066649,19.7866658 36.262,19.96 C36.6173351,20.1333342 36.9943313,20.22 37.393,20.22 C37.6270012,20.22 37.8631655,20.1853337 38.1015,20.116 C38.3398345,20.0466663 38.5543324,19.944834 38.745,19.8105 C38.9356676,19.676166 39.0916661,19.5093343 39.213,19.31 C39.3343339,19.1106657 39.395,18.8810013 39.395,18.621 C39.395,18.3349986 39.3473338,18.1031676 39.252,17.9255 C39.1566662,17.7478324 39.0093343,17.5940006 38.81,17.464 C38.6106657,17.3339993 38.3593349,17.2170005 38.056,17.113 C37.7526652,17.0089995 37.3973354,16.8876674 36.99,16.749 C36.660665,16.6449995 36.3573347,16.525834 36.08,16.3915 C35.8026653,16.257166 35.5621677,16.092501 35.3585,15.8975 C35.1548323,15.702499 34.9945006,15.4685014 34.8775,15.1955 C34.7604994,14.9224986 34.702,14.5953352 34.702,14.214 C34.702,13.7719978 34.7886658,13.386335 34.962,13.057 C35.1353342,12.727665 35.3693319,12.4525011 35.664,12.2315 C35.9586681,12.0104989 36.2923315,11.8436672 36.665,11.731 C37.0376685,11.6183328 37.4276646,11.562 37.835,11.562 C38.3550026,11.562 38.8294979,11.6421659 39.2585,11.8025 C39.6875021,11.9628341 40.0709983,12.2423313 40.409,12.641 L39.512,13.421 Z M47.624,19.895 C47.2599982,20.3630023 46.8613355,20.6901657 46.428,20.8765 C45.9946645,21.0628343 45.4920029,21.156 44.92,21.156 C44.443331,21.156 44.0143352,21.0715008 43.633,20.9025 C43.2516648,20.7334992 42.9288347,20.5060014 42.6645,20.22 C42.4001653,19.9339986 42.1965007,19.5960019 42.0535,19.206 C41.9104993,18.815998 41.839,18.4000022 41.839,17.958 C41.839,17.4899977 41.9169992,17.0588353 42.073,16.6645 C42.2290008,16.2701647 42.4456653,15.9321681 42.723,15.6505 C43.0003347,15.3688319 43.3296648,15.1500008 43.711,14.994 C44.0923352,14.8379992 44.5083311,14.76 44.959,14.76 C45.3836688,14.76 45.7736649,14.8314993 46.129,14.9745 C46.4843351,15.1175007 46.7898321,15.3254986 47.0455,15.5985 C47.3011679,15.8715014 47.4983326,16.2051647 47.637,16.5995 C47.7756674,16.9938353 47.845,17.4423308 47.845,17.945 L47.845,18.27 L42.931,18.27 C42.9483334,18.5300013 43.0111661,18.7791655 43.1195,19.0175 C43.2278339,19.2558345 43.3686658,19.4638324 43.542,19.6415 C43.7153342,19.8191676 43.9189988,19.9599995 44.153,20.064 C44.3870012,20.1680005 44.6426653,20.22 44.92,20.22 C45.3620022,20.22 45.7346652,20.1420008 46.038,19.986 C46.3413349,19.8299992 46.6143321,19.6003348 46.857,19.297 L47.624,19.895 Z M46.753,17.412 C46.7356666,16.8919974 46.5666683,16.4760016 46.246,16.164 C45.9253317,15.8519984 45.4833362,15.696 44.92,15.696 C44.3566639,15.696 43.9016684,15.8519984 43.555,16.164 C43.2083316,16.4760016 43.0003337,16.8919974 42.931,17.412 L46.753,17.412 Z M49.509,11.172 L50.523,11.172 L50.523,21 L49.509,21 L49.509,11.172 Z M57.972,19.895 C57.6079982,20.3630023 57.2093355,20.6901657 56.776,20.8765 C56.3426645,21.0628343 55.8400029,21.156 55.268,21.156 C54.791331,21.156 54.3623352,21.0715008 53.981,20.9025 C53.5996648,20.7334992 53.2768347,20.5060014 53.0125,20.22 C52.7481653,19.9339986 52.5445007,19.5960019 52.4015,19.206 C52.2584993,18.815998 52.187,18.4000022 52.187,17.958 C52.187,17.4899977 52.2649992,17.0588353 52.421,16.6645 C52.5770008,16.2701647 52.7936653,15.9321681 53.071,15.6505 C53.3483347,15.3688319 53.6776648,15.1500008 54.059,14.994 C54.4403352,14.8379992 54.8563311,14.76 55.307,14.76 C55.7316688,14.76 56.1216649,14.8314993 56.477,14.9745 C56.8323351,15.1175007 57.1378321,15.3254986 57.3935,15.5985 C57.6491679,15.8715014 57.8463326,16.2051647 57.985,16.5995 C58.1236674,16.9938353 58.193,17.4423308 58.193,17.945 L58.193,18.27 L53.279,18.27 C53.2963334,18.5300013 53.3591661,18.7791655 53.4675,19.0175 C53.5758339,19.2558345 53.7166658,19.4638324 53.89,19.6415 C54.0633342,19.8191676 54.2669988,19.9599995 54.501,20.064 C54.7350012,20.1680005 54.9906653,20.22 55.268,20.22 C55.7100022,20.22 56.0826652,20.1420008 56.386,19.986 C56.6893349,19.8299992 56.9623321,19.6003348 57.205,19.297 L57.972,19.895 Z M57.101,17.412 C57.0836666,16.8919974 56.9146683,16.4760016 56.594,16.164 C56.2733317,15.8519984 55.8313362,15.696 55.268,15.696 C54.7046639,15.696 54.2496684,15.8519984 53.903,16.164 C53.5563316,16.4760016 53.3483337,16.8919974 53.279,17.412 L57.101,17.412 Z M64.095,16.437 C63.8783323,16.1769987 63.6443346,15.9885006 63.393,15.8715 C63.1416654,15.7544994 62.8643349,15.696 62.561,15.696 C62.2229983,15.696 61.9240013,15.7544994 61.664,15.8715 C61.4039987,15.9885006 61.1895008,16.150999 61.0205,16.359 C60.8514992,16.567001 60.7236671,16.8074986 60.637,17.0805 C60.5503329,17.3535014 60.507,17.6459984 60.507,17.958 C60.507,18.2700016 60.5568328,18.5624986 60.6565,18.8355 C60.7561672,19.1085014 60.8948324,19.348999 61.0725,19.557 C61.2501676,19.765001 61.4646654,19.9274994 61.716,20.0445 C61.9673346,20.1615006 62.2489984,20.22 62.561,20.22 C63.2283367,20.22 63.7439982,19.9686692 64.108,19.466 L64.862,20.181 C64.5673319,20.5190017 64.2206687,20.7659992 63.822,20.922 C63.4233313,21.0780008 63.0030022,21.156 62.561,21.156 C62.0929977,21.156 61.664002,21.0780008 61.274,20.922 C60.8839981,20.7659992 60.5525014,20.5450014 60.2795,20.259 C60.0064986,19.9729986 59.7941674,19.6350019 59.6425,19.245 C59.4908326,18.854998 59.415,18.4260023 59.415,17.958 C59.415,17.4986644 59.4908326,17.0740019 59.6425,16.684 C59.7941674,16.293998 60.0086653,15.9560014 60.286,15.67 C60.5633347,15.3839986 60.8948314,15.1608341 61.2805,15.0005 C61.6661686,14.8401659 62.0929977,14.76 62.561,14.76 C63.0116689,14.76 63.438498,14.8379992 63.8415,14.994 C64.244502,15.1500008 64.5976652,15.392665 64.901,15.722 L64.095,16.437 Z M70.361,16.437 C70.1443323,16.1769987 69.9103346,15.9885006 69.659,15.8715 C69.4076654,15.7544994 69.1303349,15.696 68.827,15.696 C68.4889983,15.696 68.1900013,15.7544994 67.93,15.8715 C67.6699987,15.9885006 67.4555008,16.150999 67.2865,16.359 C67.1174992,16.567001 66.9896671,16.8074986 66.903,17.0805 C66.8163329,17.3535014 66.773,17.6459984 66.773,17.958 C66.773,18.2700016 66.8228328,18.5624986 66.9225,18.8355 C67.0221672,19.1085014 67.1608324,19.348999 67.3385,19.557 C67.5161676,19.765001 67.7306654,19.9274994 67.982,20.0445 C68.2333346,20.1615006 68.5149984,20.22 68.827,20.22 C69.4943367,20.22 70.0099982,19.9686692 70.374,19.466 L71.128,20.181 C70.8333319,20.5190017 70.4866687,20.7659992 70.088,20.922 C69.6893313,21.0780008 69.2690022,21.156 68.827,21.156 C68.3589977,21.156 67.930002,21.0780008 67.54,20.922 C67.1499981,20.7659992 66.8185014,20.5450014 66.5455,20.259 C66.2724986,19.9729986 66.0601674,19.6350019 65.9085,19.245 C65.7568326,18.854998 65.681,18.4260023 65.681,17.958 C65.681,17.4986644 65.7568326,17.0740019 65.9085,16.684 C66.0601674,16.293998 66.2746653,15.9560014 66.552,15.67 C66.8293347,15.3839986 67.1608314,15.1608341 67.5465,15.0005 C67.9321686,14.8401659 68.3589977,14.76 68.827,14.76 C69.2776689,14.76 69.704498,14.8379992 70.1075,14.994 C70.510502,15.1500008 70.8636652,15.392665 71.167,15.722 L70.361,16.437 Z M72.389,14.916 L73.403,14.916 L73.403,21 L72.389,21 L72.389,14.916 Z M72.155,12.537 C72.155,12.3376657 72.2264993,12.1643341 72.3695,12.017 C72.5125007,11.8696659 72.687999,11.796 72.896,11.796 C73.104001,11.796 73.2794993,11.8696659 73.4225,12.017 C73.5655007,12.1643341 73.637,12.3376657 73.637,12.537 C73.637,12.7536677 73.5676674,12.9313326 73.429,13.07 C73.2903326,13.2086674 73.1126678,13.278 72.896,13.278 C72.6793323,13.278 72.5016674,13.2086674 72.363,13.07 C72.2243326,12.9313326 72.155,12.7536677 72.155,12.537 Z M75.067,17.958 C75.067,17.4813309 75.1493325,17.0480019 75.314,16.658 C75.4786675,16.267998 75.7039986,15.9321681 75.99,15.6505 C76.2760014,15.3688319 76.6183313,15.1500008 77.017,14.994 C77.4156687,14.8379992 77.8489977,14.76 78.317,14.76 C78.7850023,14.76 79.2183313,14.8379992 79.617,14.994 C80.0156687,15.1500008 80.3579986,15.3688319 80.644,15.6505 C80.9300014,15.9321681 81.1553325,16.267998 81.32,16.658 C81.4846675,17.0480019 81.567,17.4813309 81.567,17.958 C81.567,18.434669 81.4846675,18.867998 81.32,19.258 C81.1553325,19.6480019 80.9300014,19.9838319 80.644,20.2655 C80.3579986,20.5471681 80.0156687,20.7659992 79.617,20.922 C79.2183313,21.0780008 78.7850023,21.156 78.317,21.156 C77.8489977,21.156 77.4156687,21.0780008 77.017,20.922 C76.6183313,20.7659992 76.2760014,20.5471681 75.99,20.2655 C75.7039986,19.9838319 75.4786675,19.6480019 75.314,19.258 C75.1493325,18.867998 75.067,18.434669 75.067,17.958 Z M76.159,17.958 C76.159,18.2786683 76.2088328,18.5754986 76.3085,18.8485 C76.4081672,19.1215014 76.5533324,19.3598323 76.744,19.5635 C76.9346676,19.7671677 77.1621653,19.9274994 77.4265,20.0445 C77.6908347,20.1615006 77.987665,20.22 78.317,20.22 C78.646335,20.22 78.9431653,20.1615006 79.2075,20.0445 C79.4718347,19.9274994 79.6993324,19.7671677 79.89,19.5635 C80.0806676,19.3598323 80.2258328,19.1215014 80.3255,18.8485 C80.4251672,18.5754986 80.475,18.2786683 80.475,17.958 C80.475,17.6373317 80.4251672,17.3405014 80.3255,17.0675 C80.2258328,16.7944986 80.0806676,16.5561677 79.89,16.3525 C79.6993324,16.1488323 79.4718347,15.9885006 79.2075,15.8715 C78.9431653,15.7544994 78.646335,15.696 78.317,15.696 C77.987665,15.696 77.6908347,15.7544994 77.4265,15.8715 C77.1621653,15.9885006 76.9346676,16.1488323 76.744,16.3525 C76.5533324,16.5561677 76.4081672,16.7944986 76.3085,17.0675 C76.2088328,17.3405014 76.159,17.6373317 76.159,17.958 Z M83.14,16.359 C83.14,16.0816653 83.1313334,15.8216679 83.114,15.579 C83.0966666,15.3363321 83.088,15.1153343 83.088,14.916 L84.05,14.916 C84.05,15.0806675 84.0543333,15.2453325 84.063,15.41 C84.0716667,15.5746675 84.076,15.7436658 84.076,15.917 L84.102,15.917 C84.1713337,15.7696659 84.2688327,15.6266674 84.3945,15.488 C84.5201673,15.3493326 84.6696658,15.2258339 84.843,15.1175 C85.0163342,15.0091661 85.2113323,14.9225003 85.428,14.8575 C85.6446678,14.7924997 85.8786654,14.76 86.13,14.76 C86.5286687,14.76 86.8731652,14.8206661 87.1635,14.942 C87.4538348,15.0633339 87.6943324,15.2323322 87.885,15.449 C88.0756676,15.6656677 88.2164995,15.9278318 88.3075,16.2355 C88.3985005,16.5431682 88.444,16.8789982 88.444,17.243 L88.444,21 L87.43,21 L87.43,17.347 C87.43,16.8356641 87.3173345,16.4326681 87.092,16.138 C86.8666655,15.8433319 86.5156691,15.696 86.039,15.696 C85.709665,15.696 85.4258345,15.7523328 85.1875,15.865 C84.9491655,15.9776672 84.7541674,16.137999 84.6025,16.346 C84.4508326,16.554001 84.338167,16.8009986 84.2645,17.087 C84.190833,17.3730014 84.154,17.6893316 84.154,18.036 L84.154,21 L83.14,21 L83.14,16.359 Z M90.29,15.696 C90.6020016,15.3753317 90.9724979,15.1391674 91.4015,14.9875 C91.8305021,14.8358326 92.2659978,14.76 92.708,14.76 C93.6093378,14.76 94.2593313,14.9723312 94.658,15.397 C95.0566687,15.8216688 95.256,16.467329 95.256,17.334 L95.256,19.947 C95.256,20.1203342 95.2646666,20.3001657 95.282,20.4865 C95.2993334,20.6728343 95.3209999,20.8439992 95.347,21 L94.372,21 C94.3373332,20.8613326 94.3178334,20.7075008 94.3135,20.5385 C94.3091666,20.3694992 94.307,20.2200006 94.307,20.09 L94.281,20.09 C94.0816657,20.4020016 93.8151683,20.6576657 93.4815,20.857 C93.1478317,21.0563343 92.7470023,21.156 92.279,21.156 C91.9669984,21.156 91.6745014,21.1170004 91.4015,21.039 C91.1284986,20.9609996 90.8901677,20.8461674 90.6865,20.6945 C90.4828323,20.5428326 90.3203339,20.3543345 90.199,20.129 C90.0776661,19.9036655 90.017,19.6436681 90.017,19.349 C90.017,18.8463308 90.1469987,18.4520014 90.407,18.166 C90.6670013,17.8799986 90.9898314,17.6676674 91.3755,17.529 C91.7611686,17.3903326 92.1771644,17.3036668 92.6235,17.269 C93.0698356,17.2343332 93.4793315,17.217 93.852,17.217 L94.242,17.217 L94.242,17.035 C94.242,16.5929978 94.1098347,16.2593345 93.8455,16.034 C93.5811653,15.8086655 93.2106691,15.696 92.734,15.696 C92.404665,15.696 92.0818349,15.7501661 91.7655,15.8585 C91.4491651,15.9668339 91.1696679,16.1336655 90.927,16.359 L90.29,15.696 Z M93.228,18.075 C92.5779968,18.075 92.0623352,18.1659991 91.681,18.348 C91.2996648,18.5300009 91.109,18.8289979 91.109,19.245 C91.109,19.6263352 91.2368321,19.8971659 91.4925,20.0575 C91.7481679,20.2178341 92.0666648,20.298 92.448,20.298 C92.7426681,20.298 93.0004989,20.2481672 93.2215,20.1485 C93.4425011,20.0488328 93.6266659,19.9166675 93.774,19.752 C93.9213341,19.5873325 94.0339996,19.3945011 94.112,19.1735 C94.1900004,18.9524989 94.2333333,18.7163346 94.242,18.465 L94.242,18.075 L93.228,18.075 Z M97.115,16.359 C97.115,16.0816653 97.1063334,15.8216679 97.089,15.579 C97.0716666,15.3363321 97.063,15.1153343 97.063,14.916 L98.025,14.916 C98.025,15.0806675 98.0293333,15.2453325 98.038,15.41 C98.0466667,15.5746675 98.051,15.7436658 98.051,15.917 L98.077,15.917 C98.1463337,15.7696659 98.2438327,15.6266674 98.3695,15.488 C98.4951673,15.3493326 98.6446658,15.2258339 98.818,15.1175 C98.9913342,15.0091661 99.1863323,14.9225003 99.403,14.8575 C99.6196678,14.7924997 99.8536654,14.76 100.105,14.76 C100.174334,14.76 100.243666,14.7643333 100.313,14.773 C100.382334,14.7816667 100.451666,14.7989999 100.521,14.825 L100.456,15.852 C100.282666,15.7999997 100.100668,15.774 99.91,15.774 C99.2859969,15.774 98.8331681,15.975498 98.5515,16.3785 C98.2698319,16.781502 98.129,17.3339965 98.129,18.036 L98.129,21 L97.115,21 L97.115,16.359 Z M108.477,11.796 L109.504,11.796 L113.417,21 L112.143,21 L111.207,18.738 L106.605,18.738 L105.656,21 L104.421,21 L108.477,11.796 Z M108.971,13.2 L108.945,13.2 L107.034,17.724 L110.791,17.724 L108.971,13.2 Z M114.457,16.359 C114.457,16.0816653 114.448333,15.8216679 114.431,15.579 C114.413667,15.3363321 114.405,15.1153343 114.405,14.916 L115.367,14.916 C115.367,15.0806675 115.371333,15.2453325 115.38,15.41 C115.388667,15.5746675 115.393,15.7436658 115.393,15.917 L115.419,15.917 C115.488334,15.7696659 115.585833,15.6266674 115.7115,15.488 C115.837167,15.3493326 115.986666,15.2258339 116.16,15.1175 C116.333334,15.0091661 116.528332,14.9225003 116.745,14.8575 C116.961668,14.7924997 117.195665,14.76 117.447,14.76 C117.516334,14.76 117.585666,14.7643333 117.655,14.773 C117.724334,14.7816667 117.793666,14.7989999 117.863,14.825 L117.798,15.852 C117.624666,15.7999997 117.442668,15.774 117.252,15.774 C116.627997,15.774 116.175168,15.975498 115.8935,16.3785 C115.611832,16.781502 115.471,17.3339965 115.471,18.036 L115.471,21 L114.457,21 L114.457,16.359 Z M123.362,16.437 C123.145332,16.1769987 122.911335,15.9885006 122.66,15.8715 C122.408665,15.7544994 122.131335,15.696 121.828,15.696 C121.489998,15.696 121.191001,15.7544994 120.931,15.8715 C120.670999,15.9885006 120.456501,16.150999 120.2875,16.359 C120.118499,16.567001 119.990667,16.8074986 119.904,17.0805 C119.817333,17.3535014 119.774,17.6459984 119.774,17.958 C119.774,18.2700016 119.823833,18.5624986 119.9235,18.8355 C120.023167,19.1085014 120.161832,19.348999 120.3395,19.557 C120.517168,19.765001 120.731665,19.9274994 120.983,20.0445 C121.234335,20.1615006 121.515998,20.22 121.828,20.22 C122.495337,20.22 123.010998,19.9686692 123.375,19.466 L124.129,20.181 C123.834332,20.5190017 123.487669,20.7659992 123.089,20.922 C122.690331,21.0780008 122.270002,21.156 121.828,21.156 C121.359998,21.156 120.931002,21.0780008 120.541,20.922 C120.150998,20.7659992 119.819501,20.5450014 119.5465,20.259 C119.273499,19.9729986 119.061167,19.6350019 118.9095,19.245 C118.757833,18.854998 118.682,18.4260023 118.682,17.958 C118.682,17.4986644 118.757833,17.0740019 118.9095,16.684 C119.061167,16.293998 119.275665,15.9560014 119.553,15.67 C119.830335,15.3839986 120.161831,15.1608341 120.5475,15.0005 C120.933169,14.8401659 121.359998,14.76 121.828,14.76 C122.278669,14.76 122.705498,14.8379992 123.1085,14.994 C123.511502,15.1500008 123.864665,15.392665 124.168,15.722 L123.362,16.437 Z M125.299,11.172 L126.313,11.172 L126.313,15.761 L126.339,15.761 C126.408334,15.6396661 126.503666,15.5205006 126.625,15.4035 C126.746334,15.2864994 126.891499,15.1803338 127.0605,15.085 C127.229501,14.9896662 127.417999,14.911667 127.626,14.851 C127.834001,14.790333 128.054999,14.76 128.289,14.76 C128.687669,14.76 129.032165,14.8206661 129.3225,14.942 C129.612835,15.0633339 129.853332,15.2323322 130.044,15.449 C130.234668,15.6656677 130.3755,15.9278318 130.4665,16.2355 C130.5575,16.5431682 130.603,16.8789982 130.603,17.243 L130.603,21 L129.589,21 L129.589,17.347 C129.589,16.8356641 129.476334,16.4326681 129.251,16.138 C129.025666,15.8433319 128.674669,15.696 128.198,15.696 C127.868665,15.696 127.584835,15.7523328 127.3465,15.865 C127.108165,15.9776672 126.913167,16.137999 126.7615,16.346 C126.609833,16.554001 126.497167,16.8009986 126.4235,17.087 C126.349833,17.3730014 126.313,17.6893316 126.313,18.036 L126.313,21 L125.299,21 L125.299,11.172 Z M132.618,14.916 L133.632,14.916 L133.632,21 L132.618,21 L132.618,14.916 Z M132.384,12.537 C132.384,12.3376657 132.455499,12.1643341 132.5985,12.017 C132.741501,11.8696659 132.916999,11.796 133.125,11.796 C133.333001,11.796 133.508499,11.8696659 133.6515,12.017 C133.794501,12.1643341 133.866,12.3376657 133.866,12.537 C133.866,12.7536677 133.796667,12.9313326 133.658,13.07 C133.519333,13.2086674 133.341668,13.278 133.125,13.278 C132.908332,13.278 132.730667,13.2086674 132.592,13.07 C132.453333,12.9313326 132.384,12.7536677 132.384,12.537 Z M138.416,21 L137.298,21 L134.815,14.916 L135.998,14.916 L137.896,19.687 L137.922,19.687 L139.729,14.916 L140.821,14.916 L138.416,21 Z M141.562,17.958 C141.562,17.4813309 141.644333,17.0480019 141.809,16.658 C141.973667,16.267998 142.198999,15.9321681 142.485,15.6505 C142.771001,15.3688319 143.113331,15.1500008 143.512,14.994 C143.910669,14.8379992 144.343998,14.76 144.812,14.76 C145.280002,14.76 145.713331,14.8379992 146.112,14.994 C146.510669,15.1500008 146.852999,15.3688319 147.139,15.6505 C147.425001,15.9321681 147.650333,16.267998 147.815,16.658 C147.979667,17.0480019 148.062,17.4813309 148.062,17.958 C148.062,18.434669 147.979667,18.867998 147.815,19.258 C147.650333,19.6480019 147.425001,19.9838319 147.139,20.2655 C146.852999,20.5471681 146.510669,20.7659992 146.112,20.922 C145.713331,21.0780008 145.280002,21.156 144.812,21.156 C144.343998,21.156 143.910669,21.0780008 143.512,20.922 C143.113331,20.7659992 142.771001,20.5471681 142.485,20.2655 C142.198999,19.9838319 141.973667,19.6480019 141.809,19.258 C141.644333,18.867998 141.562,18.434669 141.562,17.958 Z M142.654,17.958 C142.654,18.2786683 142.703833,18.5754986 142.8035,18.8485 C142.903167,19.1215014 143.048332,19.3598323 143.239,19.5635 C143.429668,19.7671677 143.657165,19.9274994 143.9215,20.0445 C144.185835,20.1615006 144.482665,20.22 144.812,20.22 C145.141335,20.22 145.438165,20.1615006 145.7025,20.0445 C145.966835,19.9274994 146.194332,19.7671677 146.385,19.5635 C146.575668,19.3598323 146.720833,19.1215014 146.8205,18.8485 C146.920167,18.5754986 146.97,18.2786683 146.97,17.958 C146.97,17.6373317 146.920167,17.3405014 146.8205,17.0675 C146.720833,16.7944986 146.575668,16.5561677 146.385,16.3525 C146.194332,16.1488323 145.966835,15.9885006 145.7025,15.8715 C145.438165,15.7544994 145.141335,15.696 144.812,15.696 C144.482665,15.696 144.185835,15.7544994 143.9215,15.8715 C143.657165,15.9885006 143.429668,16.1488323 143.239,16.3525 C143.048332,16.5561677 142.903167,16.7944986 142.8035,17.0675 C142.703833,17.3405014 142.654,17.6373317 142.654,17.958 Z"/>
  </g>
</svg>
