<?xml version="1.0" encoding="UTF-8"?>
<svg width="9px" height="16px" viewBox="0 0 9 16" version="1.1" xmlns="http://www.w3.org/2000/svg" xmlns:xlink="http://www.w3.org/1999/xlink">
    <!-- Generator: Sketch 52.1 (67048) - http://www.bohemiancoding.com/sketch -->
    <title>Next</title>
    <desc>Created with Sketch.</desc>
    <g id="Agenda" stroke="none" stroke-width="1" fill="none" fill-rule="evenodd">
        <g id="Imac-Calendario" transform="translate(-1059.000000, -233.000000)" fill="#2F3786">
            <g id="Body" transform="translate(365.000000, 209.000000)">
                <g id="Calendar">
                    <g id="Topbar">
                        <g id="Month-picker" transform="translate(498.333333, 22.666667)">
                            <path d="M199.999982,13.2424242 C199.763296,13.2424242 199.537057,13.1499456 199.369984,12.9855366 L192.685294,6.40584655 C192.337225,6.06333703 192.337225,5.50846065 192.685294,5.16597305 C193.033362,4.82348545 193.598112,4.82346353 193.945289,5.16597305 L200.000004,11.1248715 L206.054719,5.16597305 C206.402787,4.82346353 206.966669,4.82346353 207.314715,5.16597305 C207.662761,5.50848257 207.662783,6.06335895 207.314715,6.40584655 L200.630915,12.9855366 C200.462972,13.1499412 200.236735,13.2424242 200.000049,13.2424242 L199.999982,13.2424242 Z" id="Next" transform="translate(200.000000, 9.075758) rotate(-90.000000) translate(-200.000000, -9.075758) "></path>
                        </g>
                    </g>
                </g>
            </g>
        </g>
    </g>
</svg>