<?xml version="1.0" encoding="UTF-8"?>
<svg width="266px" height="30px" viewBox="0 0 266 30" version="1.1" xmlns="http://www.w3.org/2000/svg" xmlns:xlink="http://www.w3.org/1999/xlink">
    <!-- Generator: Sketch 52.1 (67048) - http://www.bohemiancoding.com/sketch -->
    <title>logo rad</title>
    <desc>Created with Sketch.</desc>
    <g id="Home" stroke="none" stroke-width="1" fill="none" fill-rule="evenodd">
        <g id="Imac" transform="translate(-1079.000000, -1025.000000)">
            <g id="block-Rad" transform="translate(0.000000, 927.000000)">
                <g id="logo-rad" transform="translate(1077.000000, 87.000000)">
                    <g id="Group-17" transform="translate(0.000000, 0.077220)" fill="#F2CD2F">
                        <path d="M2.8929757,11.5524057 L13.9023554,11.5524057 C15.3488505,11.5524057 16.7216609,11.693035 18.0208278,11.9742979 C19.3199947,12.2555609 20.4584228,12.7243254 21.4361463,13.3806056 C22.4138698,14.0368858 23.1906796,14.9208417 23.7665989,16.0325 C24.3425183,17.1441582 24.6304736,18.5303619 24.6304736,20.1911525 C24.6304736,22.2001735 24.108136,23.9078157 23.0634451,25.3141303 C22.0187542,26.720445 20.4919212,27.6110976 18.4829003,27.9861148 L25.7153395,40 L18.2016388,40 L12.2549665,28.6289983 L9.1610897,28.6289983 L9.1610897,40 L2.8929757,40 L2.8929757,11.5524057 Z M9.1610897,23.3252095 L12.8576698,23.3252095 C13.4201956,23.3252095 14.0161962,23.3051196 14.6456895,23.2649392 C15.2751827,23.2247588 15.8443968,23.1042193 16.3533487,22.9033172 C16.8623007,22.7024151 17.2841888,22.3876733 17.6190256,21.9590821 C17.9538624,21.530491 18.1212783,20.9277937 18.1212783,20.1509723 C18.1212783,19.4277248 17.9739523,18.8518141 17.6792959,18.4232229 C17.3846395,17.9946318 17.0096279,17.6664966 16.5542498,17.4388076 C16.0988717,17.2111186 15.5765341,17.0570959 14.9872213,16.9767351 C14.3979085,16.8963742 13.8219978,16.8561944 13.2594719,16.8561944 L9.1610897,16.8561944 L9.1610897,23.3252095 Z M44.2917478,11.5524057 L49.4749959,11.5524057 L61.850503,40 L54.7787847,40 L52.3277914,33.9729673 L41.2782314,33.9729673 L38.9075985,40 L31.996601,40 L44.2917478,11.5524057 Z M46.7025608,19.8295306 L43.2470621,28.6691785 L50.1982398,28.6691785 L46.7025608,19.8295306 Z M70.7032985,11.5524057 L80.1054695,11.5524057 C82.3823599,11.5524057 84.5453734,11.8068778 86.5945747,12.3158298 C88.6437761,12.8247818 90.4317779,13.648468 91.9586338,14.7869132 C93.4854897,15.9253584 94.6975809,17.405315 95.5949435,19.2268273 C96.4923062,21.0483396 96.9409809,23.2582295 96.9409809,25.8565633 C96.9409809,28.1602406 96.5056995,30.1893213 95.6351238,31.9438663 C94.764548,33.6984112 93.5926367,35.1716712 92.1193547,36.3636903 C90.6460727,37.5557094 88.9451271,38.4597552 87.016467,39.075855 C85.0878069,39.6919547 83.0654228,40 80.9492541,40 L70.7032985,40 L70.7032985,11.5524057 Z M76.9714125,34.2140486 L80.2260102,34.2140486 C81.6725052,34.2140486 83.0185291,34.0667226 84.2641221,33.7720662 C85.5097151,33.4774098 86.5878735,32.9885554 87.4986296,32.3054883 C88.4093858,31.6224211 89.1259258,30.7250719 89.6482713,29.6134136 C90.1706167,28.5017554 90.4317855,27.1423383 90.4317855,25.5351215 C90.4317855,24.1422003 90.1706167,22.9301092 89.6482713,21.8988118 C89.1259258,20.8675144 88.4227791,20.0170416 87.5388098,19.3473679 C86.6548406,18.6776943 85.616862,18.1754466 84.4248429,17.8406098 C83.2328239,17.5057729 81.9805529,17.338357 80.6679926,17.338357 L76.9714125,17.338357 L76.9714125,34.2140486 Z" id="RAD"></path>
                    </g>
                    <path d="M114.450848,16.4038333 L115.187665,16.4038333 L117.753821,22.4 L116.805275,22.4 L116.203964,20.9178966 L113.349857,20.9178966 L112.757015,22.4 L111.808469,22.4 L114.450848,16.4038333 Z M115.907544,20.206487 L114.789614,17.4540094 L114.772676,17.4540094 L113.637808,20.206487 L115.907544,20.206487 Z M120.628422,19.3934475 C120.538084,19.2805248 120.426574,19.1859534 120.29389,19.1097306 C120.161206,19.0335077 119.998882,18.9953969 119.806913,18.9953969 C119.626237,18.9953969 119.469559,19.0335077 119.336875,19.1097306 C119.20419,19.1859534 119.137849,19.2974629 119.137849,19.4442625 C119.137849,19.5628313 119.17596,19.6588142 119.252183,19.732214 C119.328406,19.8056137 119.418743,19.8648973 119.523196,19.9100664 C119.62765,19.9552355 119.739159,19.9891118 119.857728,20.0116963 C119.976297,20.0342809 120.077926,20.054042 120.162618,20.0709805 C120.326356,20.1105034 120.480211,20.1584948 120.624187,20.2149562 C120.768164,20.2714176 120.892377,20.3448162 120.99683,20.4351544 C121.101284,20.5254926 121.183152,20.6355906 121.242436,20.7654517 C121.301721,20.8953129 121.331362,21.0534023 121.331362,21.2397248 C121.331362,21.4655703 121.283371,21.6589475 121.187387,21.8198624 C121.091402,21.9807773 120.967189,22.112048 120.814743,22.2136784 C120.662298,22.3153089 120.488682,22.3887076 120.29389,22.4338766 C120.099098,22.4790457 119.902898,22.5016299 119.705283,22.5016299 C119.372161,22.5016299 119.079978,22.4508155 118.828725,22.349185 C118.577472,22.2475546 118.353041,22.0612349 118.155427,21.7902203 L118.73133,21.3159473 C118.855545,21.4401623 118.993873,21.5502603 119.146319,21.6462446 C119.298764,21.7422289 119.485084,21.7902203 119.705283,21.7902203 C119.801268,21.7902203 119.898662,21.7803397 119.997469,21.7605783 C120.096277,21.7408168 120.18379,21.7097635 120.260013,21.6674175 C120.336236,21.6250715 120.398343,21.571434 120.446335,21.5065034 C120.494327,21.4415728 120.518323,21.3667627 120.518323,21.2820706 C120.518323,21.1691479 120.483035,21.075988 120.412458,21.0025883 C120.341882,20.9291885 120.257191,20.8713165 120.158383,20.8289704 C120.059576,20.7866244 119.955124,20.7527481 119.845024,20.7273405 C119.734925,20.7019329 119.63753,20.6807602 119.552838,20.6638218 C119.3891,20.6242988 119.233834,20.5791304 119.087034,20.5283152 C118.940235,20.4775 118.810376,20.4097474 118.697453,20.3250553 C118.58453,20.2403633 118.494193,20.1330883 118.42644,20.0032272 C118.358686,19.873366 118.32481,19.7124536 118.32481,19.5204849 C118.32481,19.3115779 118.368567,19.1294927 118.456082,18.974224 C118.543597,18.8189552 118.659341,18.6905076 118.803317,18.5888771 C118.947294,18.4872466 119.111029,18.411025 119.294529,18.3602097 C119.478028,18.3093945 119.662936,18.2839873 119.849259,18.2839873 C120.120274,18.2839873 120.379992,18.3348017 120.628422,18.4364322 C120.876852,18.5380626 121.074464,18.7074442 121.221263,18.9445819 L120.628422,19.3934475 Z M123.02875,20.3928086 C123.02875,20.5960695 123.059803,20.7838007 123.121911,20.9560079 C123.184018,21.128215 123.271532,21.2750124 123.384455,21.3964043 C123.497377,21.5177962 123.635706,21.6137791 123.799444,21.6843558 C123.963181,21.7549325 124.146678,21.7902203 124.349939,21.7902203 C124.5532,21.7902203 124.736697,21.7549325 124.900435,21.6843558 C125.064173,21.6137791 125.202501,21.5177962 125.315424,21.3964043 C125.428346,21.2750124 125.51586,21.128215 125.577968,20.9560079 C125.640075,20.7838007 125.671128,20.5960695 125.671128,20.3928086 C125.671128,20.1895477 125.640075,20.0018165 125.577968,19.8296093 C125.51586,19.6574022 125.428346,19.5106048 125.315424,19.3892129 C125.202501,19.267821 125.064173,19.1718381 124.900435,19.1012614 C124.736697,19.0306847 124.5532,18.9953969 124.349939,18.9953969 C124.146678,18.9953969 123.963181,19.0306847 123.799444,19.1012614 C123.635706,19.1718381 123.497377,19.267821 123.384455,19.3892129 C123.271532,19.5106048 123.184018,19.6574022 123.121911,19.8296093 C123.059803,20.0018165 123.02875,20.1895477 123.02875,20.3928086 Z M122.21571,20.3928086 C122.21571,20.0992095 122.270759,19.825376 122.380859,19.5712999 C122.490959,19.3172238 122.64199,19.0942047 122.833959,18.9022361 C123.025928,18.7102675 123.25177,18.5592356 123.511492,18.4491359 C123.771214,18.3390363 124.050694,18.2839873 124.349939,18.2839873 C124.649184,18.2839873 124.928664,18.3390363 125.188386,18.4491359 C125.448108,18.5592356 125.67395,18.7102675 125.865919,18.9022361 C126.057888,19.0942047 126.20892,19.3172238 126.319019,19.5712999 C126.429119,19.825376 126.484168,20.0992095 126.484168,20.3928086 C126.484168,20.6864077 126.429119,20.9616527 126.319019,21.2185519 C126.20892,21.4754511 126.057888,21.6984701 125.865919,21.8876157 C125.67395,22.0767613 125.448108,22.2263816 125.188386,22.3364813 C124.928664,22.4465809 124.649184,22.5016299 124.349939,22.5016299 C124.050694,22.5016299 123.771214,22.4465809 123.511492,22.3364813 C123.25177,22.2263816 123.025928,22.0767613 122.833959,21.8876157 C122.64199,21.6984701 122.490959,21.4754511 122.380859,21.2185519 C122.270759,20.9616527 122.21571,20.6864077 122.21571,20.3928086 Z M130.468229,19.4527316 C130.327076,19.3059321 130.178867,19.1944226 130.023598,19.1181997 C129.868329,19.0419769 129.683421,19.003866 129.468868,19.003866 C129.259961,19.003866 129.077876,19.0419769 128.922607,19.1181997 C128.767338,19.1944226 128.637479,19.2988745 128.533026,19.4315587 C128.428572,19.5642429 128.349527,19.7166863 128.295889,19.8888935 C128.242251,20.0611006 128.215432,20.2403628 128.215432,20.4266853 C128.215432,20.6130077 128.246485,20.7894469 128.308593,20.9560079 C128.3707,21.1225689 128.458214,21.2679547 128.571137,21.3921697 C128.68406,21.5163847 128.819565,21.6137791 128.977657,21.6843558 C129.135748,21.7549325 129.313599,21.7902203 129.511214,21.7902203 C129.725767,21.7902203 129.909264,21.7521095 130.061709,21.6758866 C130.214155,21.5996638 130.355306,21.4881543 130.485167,21.3413548 L131.027194,21.8833811 C130.829579,22.1035804 130.599502,22.2616699 130.336957,22.3576542 C130.074412,22.4536385 129.796344,22.5016299 129.502745,22.5016299 C129.192207,22.5016299 128.908493,22.4508155 128.651594,22.349185 C128.394695,22.2475546 128.173087,22.1049918 127.986765,21.9214923 C127.800442,21.7379929 127.656468,21.5177969 127.554837,21.2608977 C127.453207,21.0039985 127.402392,20.7202844 127.402392,20.4097469 C127.402392,20.0992094 127.453207,19.8140838 127.554837,19.5543616 C127.656468,19.2946393 127.799031,19.0716203 127.98253,18.8852978 C128.16603,18.6989753 128.386226,18.5535894 128.643125,18.4491359 C128.900024,18.3446824 129.186561,18.2924564 129.502745,18.2924564 C129.796344,18.2924564 130.077235,18.3446824 130.345426,18.4491359 C130.613618,18.5535894 130.846517,18.7130904 131.044132,18.9276436 L130.468229,19.4527316 Z M131.894603,18.3856172 L132.656828,18.3856172 L132.656828,22.4 L131.894603,22.4 L131.894603,18.3856172 Z M131.716751,16.9458597 C131.716751,16.793414 131.7718,16.6621433 131.8819,16.5520436 C131.991999,16.441944 132.12327,16.386895 132.275716,16.386895 C132.428161,16.386895 132.559432,16.441944 132.669532,16.5520436 C132.779631,16.6621433 132.83468,16.793414 132.83468,16.9458597 C132.83468,17.0983054 132.779631,17.229576 132.669532,17.3396757 C132.559432,17.4497754 132.428161,17.5048244 132.275716,17.5048244 C132.12327,17.5048244 131.991999,17.4497754 131.8819,17.3396757 C131.7718,17.229576 131.716751,17.0983054 131.716751,16.9458597 Z M134.040856,18.8768286 C134.25541,18.6792138 134.503836,18.531005 134.786143,18.4321976 C135.06845,18.3333902 135.350752,18.2839873 135.633059,18.2839873 C135.926658,18.2839873 136.179319,18.3206866 136.391049,18.3940864 C136.602779,18.4674861 136.776395,18.566292 136.911902,18.690507 C137.04741,18.814722 137.147627,18.9572848 137.212558,19.1181997 C137.277488,19.2791146 137.309953,19.4470846 137.309953,19.6221149 L137.309953,21.6716521 C137.309953,21.8128055 137.312776,21.9426647 137.318422,22.0612335 C137.324068,22.1798024 137.332537,22.2927234 137.34383,22.4 L136.666297,22.4 C136.649358,22.1967391 136.640889,21.9934812 136.640889,21.7902203 L136.623951,21.7902203 C136.454567,22.0499426 136.254132,22.2334393 136.02264,22.3407159 C135.791149,22.4479925 135.522961,22.5016299 135.21807,22.5016299 C135.031748,22.5016299 134.853897,22.4762227 134.684513,22.4254075 C134.515129,22.3745923 134.36692,22.2983706 134.239882,22.1967401 C134.112844,22.0951097 134.012626,21.969485 133.939227,21.8198624 C133.865827,21.6702398 133.829127,21.4966237 133.829127,21.2990089 C133.829127,21.0392867 133.886999,20.8219137 134.002745,20.6468835 C134.118491,20.4718532 134.27658,20.3292904 134.477018,20.2191908 C134.677456,20.1090911 134.911767,20.0300464 135.179959,19.9820542 C135.44815,19.9340621 135.734687,19.9100664 136.039579,19.9100664 L136.598543,19.9100664 L136.598543,19.7406831 C136.598543,19.6390527 136.578782,19.5374238 136.539259,19.4357933 C136.499736,19.3341628 136.440453,19.2424145 136.361407,19.1605455 C136.282361,19.0786766 136.183555,19.013747 136.064986,18.9657548 C135.946417,18.9177627 135.805266,18.8937669 135.641528,18.8937669 C135.494729,18.8937669 135.366281,18.9078821 135.256181,18.9361127 C135.146082,18.9643434 135.045864,18.9996312 134.955526,19.0419773 C134.865188,19.0843233 134.78332,19.1337262 134.70992,19.1901876 C134.636521,19.246649 134.565945,19.3002865 134.498191,19.3511017 L134.040856,18.8768286 Z M136.192024,20.4690311 C136.011347,20.4690311 135.826439,20.4789117 135.637294,20.4986731 C135.448148,20.5184346 135.275943,20.5565455 135.120675,20.6130068 C134.965406,20.6694682 134.83837,20.7485129 134.739562,20.8501434 C134.640755,20.9517738 134.591352,21.081633 134.591352,21.2397248 C134.591352,21.4712164 134.668985,21.6377749 134.824254,21.7394054 C134.979523,21.8410358 135.189838,21.8918503 135.455207,21.8918503 C135.664114,21.8918503 135.841964,21.8565625 135.988764,21.7859858 C136.135563,21.7154091 136.25413,21.6236607 136.344469,21.510738 C136.434807,21.3978153 136.499736,21.2721906 136.539259,21.1338603 C136.578782,20.9955299 136.598543,20.8586132 136.598543,20.7231059 L136.598543,20.4690311 L136.192024,20.4690311 Z M141.446459,19.4527316 C141.305306,19.3059321 141.157097,19.1944226 141.001828,19.1181997 C140.846559,19.0419769 140.661651,19.003866 140.447098,19.003866 C140.238191,19.003866 140.056106,19.0419769 139.900837,19.1181997 C139.745568,19.1944226 139.615709,19.2988745 139.511256,19.4315587 C139.406802,19.5642429 139.327757,19.7166863 139.274119,19.8888935 C139.220481,20.0611006 139.193662,20.2403628 139.193662,20.4266853 C139.193662,20.6130077 139.224715,20.7894469 139.286823,20.9560079 C139.34893,21.1225689 139.436444,21.2679547 139.549367,21.3921697 C139.66229,21.5163847 139.797795,21.6137791 139.955887,21.6843558 C140.113978,21.7549325 140.291829,21.7902203 140.489444,21.7902203 C140.703997,21.7902203 140.887494,21.7521095 141.039939,21.6758866 C141.192385,21.5996638 141.333536,21.4881543 141.463397,21.3413548 L142.005424,21.8833811 C141.807809,22.1035804 141.577732,22.2616699 141.315187,22.3576542 C141.052642,22.4536385 140.774574,22.5016299 140.480975,22.5016299 C140.170437,22.5016299 139.886723,22.4508155 139.629824,22.349185 C139.372925,22.2475546 139.151317,22.1049918 138.964995,21.9214923 C138.778672,21.7379929 138.634698,21.5177969 138.533067,21.2608977 C138.431437,21.0039985 138.380623,20.7202844 138.380623,20.4097469 C138.380623,20.0992094 138.431437,19.8140838 138.533067,19.5543616 C138.634698,19.2946393 138.777261,19.0716203 138.96076,18.8852978 C139.14426,18.6989753 139.364456,18.5535894 139.621355,18.4491359 C139.878254,18.3446824 140.164791,18.2924564 140.480975,18.2924564 C140.774574,18.2924564 141.055465,18.3446824 141.323656,18.4491359 C141.591848,18.5535894 141.824747,18.7130904 142.022362,18.9276436 L141.446459,19.4527316 Z M142.872833,18.3856172 L143.635058,18.3856172 L143.635058,22.4 L142.872833,22.4 L142.872833,18.3856172 Z M142.694981,16.9458597 C142.694981,16.793414 142.75003,16.6621433 142.86013,16.5520436 C142.970229,16.441944 143.1015,16.386895 143.253946,16.386895 C143.406391,16.386895 143.537662,16.441944 143.647762,16.5520436 C143.757861,16.6621433 143.81291,16.793414 143.81291,16.9458597 C143.81291,17.0983054 143.757861,17.229576 143.647762,17.3396757 C143.537662,17.4497754 143.406391,17.5048244 143.253946,17.5048244 C143.1015,17.5048244 142.970229,17.4497754 142.86013,17.3396757 C142.75003,17.229576 142.694981,17.0983054 142.694981,16.9458597 Z M145.620397,20.3928086 C145.620397,20.5960695 145.65145,20.7838007 145.713558,20.9560079 C145.775665,21.128215 145.863179,21.2750124 145.976102,21.3964043 C146.089025,21.5177962 146.227353,21.6137791 146.391091,21.6843558 C146.554829,21.7549325 146.738325,21.7902203 146.941586,21.7902203 C147.144847,21.7902203 147.328344,21.7549325 147.492082,21.6843558 C147.65582,21.6137791 147.794148,21.5177962 147.907071,21.3964043 C148.019993,21.2750124 148.107507,21.128215 148.169615,20.9560079 C148.231722,20.7838007 148.262776,20.5960695 148.262776,20.3928086 C148.262776,20.1895477 148.231722,20.0018165 148.169615,19.8296093 C148.107507,19.6574022 148.019993,19.5106048 147.907071,19.3892129 C147.794148,19.267821 147.65582,19.1718381 147.492082,19.1012614 C147.328344,19.0306847 147.144847,18.9953969 146.941586,18.9953969 C146.738325,18.9953969 146.554829,19.0306847 146.391091,19.1012614 C146.227353,19.1718381 146.089025,19.267821 145.976102,19.3892129 C145.863179,19.5106048 145.775665,19.6574022 145.713558,19.8296093 C145.65145,20.0018165 145.620397,20.1895477 145.620397,20.3928086 Z M144.807357,20.3928086 C144.807357,20.0992095 144.862406,19.825376 144.972506,19.5712999 C145.082606,19.3172238 145.233638,19.0942047 145.425606,18.9022361 C145.617575,18.7102675 145.843417,18.5592356 146.103139,18.4491359 C146.362862,18.3390363 146.642341,18.2839873 146.941586,18.2839873 C147.240831,18.2839873 147.520311,18.3390363 147.780033,18.4491359 C148.039756,18.5592356 148.265598,18.7102675 148.457566,18.9022361 C148.649535,19.0942047 148.800567,19.3172238 148.910666,19.5712999 C149.020766,19.825376 149.075815,20.0992095 149.075815,20.3928086 C149.075815,20.6864077 149.020766,20.9616527 148.910666,21.2185519 C148.800567,21.4754511 148.649535,21.6984701 148.457566,21.8876157 C148.265598,22.0767613 148.039756,22.2263816 147.780033,22.3364813 C147.520311,22.4465809 147.240831,22.5016299 146.941586,22.5016299 C146.642341,22.5016299 146.362862,22.4465809 146.103139,22.3364813 C145.843417,22.2263816 145.617575,22.0767613 145.425606,21.8876157 C145.233638,21.6984701 145.082606,21.4754511 144.972506,21.2185519 C144.862406,20.9616527 144.807357,20.6864077 144.807357,20.3928086 Z M147.271884,16.4038333 L148.355936,16.4038333 L147.094031,17.6233926 L146.391091,17.6233926 L147.271884,16.4038333 Z M150.18883,18.3856172 L150.951055,18.3856172 L150.951055,19.003866 L150.967993,19.003866 C151.063978,18.7893129 151.230536,18.6156968 151.467674,18.4830126 C151.704812,18.3503284 151.978645,18.2839873 152.289183,18.2839873 C152.481151,18.2839873 152.666059,18.313629 152.843913,18.3729135 C153.021766,18.4321979 153.177032,18.5239462 153.309717,18.6481612 C153.442401,18.7723762 153.548264,18.9318772 153.62731,19.1266689 C153.706356,19.3214606 153.745878,19.5515372 153.745878,19.8169056 L153.745878,22.4 L152.983654,22.4 L152.983654,20.0286346 C152.983654,19.8423121 152.958247,19.6828112 152.907431,19.550127 C152.856616,19.4174428 152.788864,19.3101678 152.704172,19.2282988 C152.619479,19.1464299 152.522085,19.0871463 152.411985,19.0504464 C152.301886,19.0137465 152.187553,18.9953969 152.068984,18.9953969 C151.910893,18.9953969 151.764095,19.0208041 151.628588,19.0716193 C151.493081,19.1224346 151.374514,19.2028908 151.272883,19.3129905 C151.171253,19.4230901 151.092208,19.5628299 151.035747,19.732214 C150.979285,19.9015981 150.951055,20.1020329 150.951055,20.3335245 L150.951055,22.4 L150.18883,22.4 L150.18883,18.3856172 Z M160.435157,19.4527316 C160.294004,19.3059321 160.145795,19.1944226 159.990526,19.1181997 C159.835258,19.0419769 159.650349,19.003866 159.435796,19.003866 C159.226889,19.003866 159.044804,19.0419769 158.889535,19.1181997 C158.734267,19.1944226 158.604407,19.2988745 158.499954,19.4315587 C158.3955,19.5642429 158.316456,19.7166863 158.262817,19.8888935 C158.209179,20.0611006 158.18236,20.2403628 158.18236,20.4266853 C158.18236,20.6130077 158.213414,20.7894469 158.275521,20.9560079 C158.337629,21.1225689 158.425142,21.2679547 158.538065,21.3921697 C158.650988,21.5163847 158.786493,21.6137791 158.944585,21.6843558 C159.102677,21.7549325 159.280527,21.7902203 159.478142,21.7902203 C159.692695,21.7902203 159.876192,21.7521095 160.028638,21.6758866 C160.181083,21.5996638 160.322235,21.4881543 160.452096,21.3413548 L160.994122,21.8833811 C160.796507,22.1035804 160.566431,22.2616699 160.303885,22.3576542 C160.04134,22.4536385 159.763272,22.5016299 159.469673,22.5016299 C159.159135,22.5016299 158.875421,22.4508155 158.618522,22.349185 C158.361623,22.2475546 158.140015,22.1049918 157.953693,21.9214923 C157.76737,21.7379929 157.623396,21.5177969 157.521766,21.2608977 C157.420135,21.0039985 157.369321,20.7202844 157.369321,20.4097469 C157.369321,20.0992094 157.420135,19.8140838 157.521766,19.5543616 C157.623396,19.2946393 157.765959,19.0716203 157.949458,18.8852978 C158.132958,18.6989753 158.353154,18.5535894 158.610053,18.4491359 C158.866952,18.3446824 159.153489,18.2924564 159.469673,18.2924564 C159.763272,18.2924564 160.044163,18.3446824 160.312355,18.4491359 C160.580546,18.5535894 160.813446,18.7130904 161.01106,18.9276436 L160.435157,19.4527316 Z M162.420496,20.3928086 C162.420496,20.5960695 162.45155,20.7838007 162.513657,20.9560079 C162.575765,21.128215 162.663278,21.2750124 162.776201,21.3964043 C162.889124,21.5177962 163.027452,21.6137791 163.19119,21.6843558 C163.354928,21.7549325 163.538425,21.7902203 163.741686,21.7902203 C163.944947,21.7902203 164.128443,21.7549325 164.292181,21.6843558 C164.455919,21.6137791 164.594247,21.5177962 164.70717,21.3964043 C164.820093,21.2750124 164.907607,21.128215 164.969714,20.9560079 C165.031822,20.7838007 165.062875,20.5960695 165.062875,20.3928086 C165.062875,20.1895477 165.031822,20.0018165 164.969714,19.8296093 C164.907607,19.6574022 164.820093,19.5106048 164.70717,19.3892129 C164.594247,19.267821 164.455919,19.1718381 164.292181,19.1012614 C164.128443,19.0306847 163.944947,18.9953969 163.741686,18.9953969 C163.538425,18.9953969 163.354928,19.0306847 163.19119,19.1012614 C163.027452,19.1718381 162.889124,19.267821 162.776201,19.3892129 C162.663278,19.5106048 162.575765,19.6574022 162.513657,19.8296093 C162.45155,20.0018165 162.420496,20.1895477 162.420496,20.3928086 Z M161.607457,20.3928086 C161.607457,20.0992095 161.662506,19.825376 161.772606,19.5712999 C161.882705,19.3172238 162.033737,19.0942047 162.225706,18.9022361 C162.417674,18.7102675 162.643516,18.5592356 162.903239,18.4491359 C163.162961,18.3390363 163.44244,18.2839873 163.741686,18.2839873 C164.040931,18.2839873 164.32041,18.3390363 164.580133,18.4491359 C164.839855,18.5592356 165.065697,18.7102675 165.257666,18.9022361 C165.449634,19.0942047 165.600666,19.3172238 165.710766,19.5712999 C165.820865,19.825376 165.875914,20.0992095 165.875914,20.3928086 C165.875914,20.6864077 165.820865,20.9616527 165.710766,21.2185519 C165.600666,21.4754511 165.449634,21.6984701 165.257666,21.8876157 C165.065697,22.0767613 164.839855,22.2263816 164.580133,22.3364813 C164.32041,22.4465809 164.040931,22.5016299 163.741686,22.5016299 C163.44244,22.5016299 163.162961,22.4465809 162.903239,22.3364813 C162.643516,22.2263816 162.417674,22.0767613 162.225706,21.8876157 C162.033737,21.6984701 161.882705,21.4754511 161.772606,21.2185519 C161.662506,20.9616527 161.607457,20.6864077 161.607457,20.3928086 Z M167.048214,15.9973135 L167.810439,15.9973135 L167.810439,22.4 L167.048214,22.4 L167.048214,15.9973135 Z M169.795777,20.3928086 C169.795777,20.5960695 169.826831,20.7838007 169.888938,20.9560079 C169.951046,21.128215 170.03856,21.2750124 170.151482,21.3964043 C170.264405,21.5177962 170.402733,21.6137791 170.566471,21.6843558 C170.730209,21.7549325 170.913706,21.7902203 171.116967,21.7902203 C171.320228,21.7902203 171.503724,21.7549325 171.667462,21.6843558 C171.8312,21.6137791 171.969529,21.5177962 172.082451,21.3964043 C172.195374,21.2750124 172.282888,21.128215 172.344995,20.9560079 C172.407103,20.7838007 172.438156,20.5960695 172.438156,20.3928086 C172.438156,20.1895477 172.407103,20.0018165 172.344995,19.8296093 C172.282888,19.6574022 172.195374,19.5106048 172.082451,19.3892129 C171.969529,19.267821 171.8312,19.1718381 171.667462,19.1012614 C171.503724,19.0306847 171.320228,18.9953969 171.116967,18.9953969 C170.913706,18.9953969 170.730209,19.0306847 170.566471,19.1012614 C170.402733,19.1718381 170.264405,19.267821 170.151482,19.3892129 C170.03856,19.5106048 169.951046,19.6574022 169.888938,19.8296093 C169.826831,20.0018165 169.795777,20.1895477 169.795777,20.3928086 Z M168.982738,20.3928086 C168.982738,20.0992095 169.037787,19.825376 169.147887,19.5712999 C169.257986,19.3172238 169.409018,19.0942047 169.600987,18.9022361 C169.792955,18.7102675 170.018797,18.5592356 170.27852,18.4491359 C170.538242,18.3390363 170.817722,18.2839873 171.116967,18.2839873 C171.416212,18.2839873 171.695692,18.3390363 171.955414,18.4491359 C172.215136,18.5592356 172.440978,18.7102675 172.632947,18.9022361 C172.824915,19.0942047 172.975947,19.3172238 173.086047,19.5712999 C173.196147,19.825376 173.251196,20.0992095 173.251196,20.3928086 C173.251196,20.6864077 173.196147,20.9616527 173.086047,21.2185519 C172.975947,21.4754511 172.824915,21.6984701 172.632947,21.8876157 C172.440978,22.0767613 172.215136,22.2263816 171.955414,22.3364813 C171.695692,22.4465809 171.416212,22.5016299 171.116967,22.5016299 C170.817722,22.5016299 170.538242,22.4465809 170.27852,22.3364813 C170.018797,22.2263816 169.792955,22.0767613 169.600987,21.8876157 C169.409018,21.6984701 169.257986,21.4754511 169.147887,21.2185519 C169.037787,20.9616527 168.982738,20.6864077 168.982738,20.3928086 Z M174.364211,18.3856172 L175.075621,18.3856172 L175.075621,19.0123352 L175.092559,19.0123352 C175.109497,18.9558738 175.153254,18.8852982 175.223831,18.8006062 C175.294408,18.7159141 175.384744,18.6354579 175.494844,18.559235 C175.604944,18.4830122 175.734803,18.4180826 175.884425,18.3644443 C176.034048,18.310806 176.199195,18.2839873 176.379871,18.2839873 C176.679117,18.2839873 176.930366,18.3460938 177.133627,18.4703088 C177.336888,18.5945238 177.503446,18.7808435 177.633307,19.0292735 C177.763169,18.7808435 177.946665,18.5945238 178.183803,18.4703088 C178.420941,18.3460938 178.660898,18.2839873 178.903682,18.2839873 C179.214219,18.2839873 179.468292,18.3348017 179.665906,18.4364322 C179.863521,18.5380626 180.018787,18.6721564 180.13171,18.8387174 C180.244633,19.0052784 180.322266,19.1944211 180.364612,19.4061512 C180.406958,19.6178813 180.428131,19.8366658 180.428131,20.0625113 L180.428131,22.4 L179.665906,22.4 L179.665906,20.1641412 C179.665906,20.0116956 179.656026,19.8648982 179.636264,19.7237448 C179.616503,19.5825914 179.575569,19.4583783 179.513461,19.3511017 C179.451354,19.2438251 179.36384,19.1577228 179.250917,19.0927922 C179.137995,19.0278617 178.988374,18.9953969 178.802052,18.9953969 C178.435053,18.9953969 178.172512,19.1083179 178.01442,19.3341634 C177.856328,19.5600088 177.777283,19.8507805 177.777283,20.206487 L177.777283,22.4 L177.015059,22.4 L177.015059,20.2996478 C177.015059,20.1076792 177.005178,19.9326516 176.985417,19.7745598 C176.965655,19.616468 176.926133,19.4795512 176.866848,19.3638054 C176.807564,19.2480596 176.722873,19.1577228 176.612773,19.0927922 C176.502674,19.0278617 176.354465,18.9953969 176.168142,18.9953969 C176.032635,18.9953969 175.901364,19.0222156 175.774326,19.0758539 C175.647288,19.1294922 175.535779,19.2099484 175.439794,19.317225 C175.34381,19.4245016 175.267588,19.5614184 175.211127,19.7279794 C175.154666,19.8945404 175.126435,20.0907407 175.126435,20.3165861 L175.126435,22.4 L174.364211,22.4 L174.364211,18.3856172 Z M181.735937,15.9973135 L182.498161,15.9973135 L182.498161,18.9615202 L182.5151,18.9615202 C182.650607,18.7526132 182.845396,18.5874662 183.099472,18.4660743 C183.353548,18.3446823 183.624559,18.2839873 183.912512,18.2839873 C184.223049,18.2839873 184.50394,18.3376248 184.755193,18.4449013 C185.006446,18.5521779 185.220996,18.7003868 185.398849,18.8895324 C185.576703,19.0786779 185.71362,19.301697 185.809604,19.5585961 C185.905588,19.8154953 185.95358,20.0935634 185.95358,20.3928086 C185.95358,20.6920538 185.905588,20.9687104 185.809604,21.2227865 C185.71362,21.4768626 185.576703,21.6998816 185.398849,21.8918503 C185.220996,22.0838189 185.006446,22.2334393 184.755193,22.3407159 C184.50394,22.4479925 184.223049,22.5016299 183.912512,22.5016299 C183.641497,22.5016299 183.377544,22.4423464 183.120645,22.3237775 C182.863746,22.2052087 182.661899,22.0386502 182.5151,21.824097 L182.498161,21.824097 L182.498161,22.4 L181.735937,22.4 L181.735937,15.9973135 Z M183.819351,21.7902203 C184.022612,21.7902203 184.206108,21.7549325 184.369846,21.6843558 C184.533584,21.6137791 184.671913,21.5177962 184.784835,21.3964043 C184.897758,21.2750124 184.985272,21.128215 185.047379,20.9560079 C185.109487,20.7838007 185.14054,20.5960695 185.14054,20.3928086 C185.14054,20.1895477 185.109487,20.0018165 185.047379,19.8296093 C184.985272,19.6574022 184.897758,19.5106048 184.784835,19.3892129 C184.671913,19.267821 184.533584,19.1718381 184.369846,19.1012614 C184.206108,19.0306847 184.022612,18.9953969 183.819351,18.9953969 C183.61609,18.9953969 183.432593,19.0306847 183.268855,19.1012614 C183.105117,19.1718381 182.966789,19.267821 182.853866,19.3892129 C182.740944,19.5106048 182.65343,19.6574022 182.591322,19.8296093 C182.529215,20.0018165 182.498161,20.1895477 182.498161,20.3928086 C182.498161,20.5960695 182.529215,20.7838007 182.591322,20.9560079 C182.65343,21.128215 182.740944,21.2750124 182.853866,21.3964043 C182.966789,21.5177962 183.105117,21.6137791 183.268855,21.6843558 C183.432593,21.7549325 183.61609,21.7902203 183.819351,21.7902203 Z M187.125879,18.3856172 L187.888104,18.3856172 L187.888104,22.4 L187.125879,22.4 L187.125879,18.3856172 Z M186.948027,16.9458597 C186.948027,16.793414 187.003076,16.6621433 187.113175,16.5520436 C187.223275,16.441944 187.354546,16.386895 187.506991,16.386895 C187.659437,16.386895 187.790708,16.441944 187.900807,16.5520436 C188.010907,16.6621433 188.065956,16.793414 188.065956,16.9458597 C188.065956,17.0983054 188.010907,17.229576 187.900807,17.3396757 C187.790708,17.4497754 187.659437,17.5048244 187.506991,17.5048244 C187.354546,17.5048244 187.223275,17.4497754 187.113175,17.3396757 C187.003076,17.229576 186.948027,17.0983054 186.948027,16.9458597 Z M189.272132,18.8768286 C189.486685,18.6792138 189.735112,18.531005 190.017418,18.4321976 C190.299725,18.3333902 190.582028,18.2839873 190.864335,18.2839873 C191.157934,18.2839873 191.410594,18.3206866 191.622325,18.3940864 C191.834055,18.4674861 192.007671,18.566292 192.143178,18.690507 C192.278685,18.814722 192.378903,18.9572848 192.443833,19.1181997 C192.508764,19.2791146 192.541229,19.4470846 192.541229,19.6221149 L192.541229,21.6716521 C192.541229,21.8128055 192.544052,21.9426647 192.549698,22.0612335 C192.555344,22.1798024 192.563813,22.2927234 192.575105,22.4 L191.897572,22.4 C191.880634,22.1967391 191.872165,21.9934812 191.872165,21.7902203 L191.855226,21.7902203 C191.685842,22.0499426 191.485408,22.2334393 191.253916,22.3407159 C191.022424,22.4479925 190.754237,22.5016299 190.449346,22.5016299 C190.263023,22.5016299 190.085172,22.4762227 189.915788,22.4254075 C189.746404,22.3745923 189.598195,22.2983706 189.471157,22.1967401 C189.344119,22.0951097 189.243902,21.969485 189.170502,21.8198624 C189.097102,21.6702398 189.060403,21.4966237 189.060403,21.2990089 C189.060403,21.0392867 189.118275,20.8219137 189.234021,20.6468835 C189.349767,20.4718532 189.507856,20.3292904 189.708294,20.2191908 C189.908732,20.1090911 190.143043,20.0300464 190.411234,19.9820542 C190.679426,19.9340621 190.965963,19.9100664 191.270854,19.9100664 L191.829819,19.9100664 L191.829819,19.7406831 C191.829819,19.6390527 191.810058,19.5374238 191.770535,19.4357933 C191.731012,19.3341628 191.671728,19.2424145 191.592682,19.1605455 C191.513637,19.0786766 191.414831,19.013747 191.296262,18.9657548 C191.177693,18.9177627 191.036542,18.8937669 190.872804,18.8937669 C190.726004,18.8937669 190.597556,18.9078821 190.487457,18.9361127 C190.377357,18.9643434 190.27714,18.9996312 190.186802,19.0419773 C190.096463,19.0843233 190.014596,19.1337262 189.941196,19.1901876 C189.867796,19.246649 189.79722,19.3002865 189.729467,19.3511017 L189.272132,18.8768286 Z M191.423299,20.4690311 C191.242623,20.4690311 191.057715,20.4789117 190.868569,20.4986731 C190.679424,20.5184346 190.507219,20.5565455 190.35195,20.6130068 C190.196681,20.6694682 190.069645,20.7485129 189.970838,20.8501434 C189.872031,20.9517738 189.822628,21.081633 189.822628,21.2397248 C189.822628,21.4712164 189.900261,21.6377749 190.05553,21.7394054 C190.210798,21.8410358 190.421114,21.8918503 190.686482,21.8918503 C190.895389,21.8918503 191.07324,21.8565625 191.220039,21.7859858 C191.366839,21.7154091 191.485406,21.6236607 191.575744,21.510738 C191.666082,21.3978153 191.731012,21.2721906 191.770535,21.1338603 C191.810058,20.9955299 191.829819,20.8586132 191.829819,20.7231059 L191.829819,20.4690311 L191.423299,20.4690311 Z M193.806689,18.3856172 L194.568913,18.3856172 L194.568913,19.003866 L194.585852,19.003866 C194.681836,18.7893129 194.848395,18.6156968 195.085532,18.4830126 C195.32267,18.3503284 195.596504,18.2839873 195.907041,18.2839873 C196.09901,18.2839873 196.283918,18.313629 196.461771,18.3729135 C196.639624,18.4321979 196.794891,18.5239462 196.927575,18.6481612 C197.060259,18.7723762 197.166123,18.9318772 197.245169,19.1266689 C197.324215,19.3214606 197.363737,19.5515372 197.363737,19.8169056 L197.363737,22.4 L196.601512,22.4 L196.601512,20.0286346 C196.601512,19.8423121 196.576105,19.6828112 196.52529,19.550127 C196.474475,19.4174428 196.406722,19.3101678 196.32203,19.2282988 C196.237338,19.1464299 196.139944,19.0871463 196.029844,19.0504464 C195.919744,19.0137465 195.805412,18.9953969 195.686843,18.9953969 C195.528751,18.9953969 195.381954,19.0208041 195.246446,19.0716193 C195.110939,19.1224346 194.992372,19.2028908 194.890742,19.3129905 C194.789111,19.4230901 194.710066,19.5628299 194.653605,19.732214 C194.597144,19.9015981 194.568913,20.1020329 194.568913,20.3335245 L194.568913,22.4 L193.806689,22.4 L193.806689,18.3856172 Z M198.688481,18.8768286 C198.903034,18.6792138 199.151461,18.531005 199.433767,18.4321976 C199.716074,18.3333902 199.998377,18.2839873 200.280684,18.2839873 C200.574283,18.2839873 200.826944,18.3206866 201.038674,18.3940864 C201.250404,18.4674861 201.42402,18.566292 201.559527,18.690507 C201.695034,18.814722 201.795252,18.9572848 201.860182,19.1181997 C201.925113,19.2791146 201.957578,19.4470846 201.957578,19.6221149 L201.957578,21.6716521 C201.957578,21.8128055 201.960401,21.9426647 201.966047,22.0612335 C201.971693,22.1798024 201.980162,22.2927234 201.991454,22.4 L201.313921,22.4 C201.296983,22.1967391 201.288514,21.9934812 201.288514,21.7902203 L201.271576,21.7902203 C201.102192,22.0499426 200.901757,22.2334393 200.670265,22.3407159 C200.438774,22.4479925 200.170586,22.5016299 199.865695,22.5016299 C199.679372,22.5016299 199.501522,22.4762227 199.332138,22.4254075 C199.162753,22.3745923 199.014545,22.2983706 198.887507,22.1967401 C198.760468,22.0951097 198.660251,21.969485 198.586851,21.8198624 C198.513452,21.6702398 198.476752,21.4966237 198.476752,21.2990089 C198.476752,21.0392867 198.534624,20.8219137 198.65037,20.6468835 C198.766116,20.4718532 198.924205,20.3292904 199.124643,20.2191908 C199.325081,20.1090911 199.559392,20.0300464 199.827584,19.9820542 C200.095775,19.9340621 200.382312,19.9100664 200.687203,19.9100664 L201.246168,19.9100664 L201.246168,19.7406831 C201.246168,19.6390527 201.226407,19.5374238 201.186884,19.4357933 C201.147361,19.3341628 201.088078,19.2424145 201.009032,19.1605455 C200.929986,19.0786766 200.83118,19.013747 200.712611,18.9657548 C200.594042,18.9177627 200.452891,18.8937669 200.289153,18.8937669 C200.142353,18.8937669 200.013906,18.9078821 199.903806,18.9361127 C199.793706,18.9643434 199.693489,18.9996312 199.603151,19.0419773 C199.512813,19.0843233 199.430945,19.1337262 199.357545,19.1901876 C199.284145,19.246649 199.21357,19.3002865 199.145816,19.3511017 L198.688481,18.8768286 Z M200.839648,20.4690311 C200.658972,20.4690311 200.474064,20.4789117 200.284918,20.4986731 C200.095773,20.5184346 199.923568,20.5565455 199.768299,20.6130068 C199.613031,20.6694682 199.485994,20.7485129 199.387187,20.8501434 C199.28838,20.9517738 199.238977,21.081633 199.238977,21.2397248 C199.238977,21.4712164 199.31661,21.6377749 199.471879,21.7394054 C199.627147,21.8410358 199.837463,21.8918503 200.102831,21.8918503 C200.311738,21.8918503 200.489589,21.8565625 200.636388,21.7859858 C200.783188,21.7154091 200.901755,21.6236607 200.992093,21.510738 C201.082431,21.3978153 201.147361,21.2721906 201.186884,21.1338603 C201.226407,20.9955299 201.246168,20.8586132 201.246168,20.7231059 L201.246168,20.4690311 L200.839648,20.4690311 Z" id="Asociación-colombiana" fill="#FFFFFF"></path>
                    <path d="M112.562226,28.7047778 L115.462919,28.7047778 C115.844034,28.7047778 116.205735,28.7418301 116.548033,28.8159358 C116.89033,28.8900415 117.190277,29.0135491 117.447883,29.1864623 C117.705488,29.3593755 117.910158,29.5922756 118.061898,29.8851695 C118.213638,30.1780633 118.289507,30.5432929 118.289507,30.9808693 C118.289507,31.5101956 118.151885,31.9601161 117.876635,32.3306445 C117.601385,32.7011729 117.199103,32.9358373 116.669777,33.0346449 L118.575342,36.2 L116.595672,36.2 L115.028874,33.2040284 L114.213716,33.2040284 L114.213716,36.2 L112.562226,36.2 L112.562226,28.7047778 Z M114.213716,31.8066141 L115.187671,31.8066141 C115.335882,31.8066141 115.492913,31.8013209 115.658769,31.7907344 C115.824625,31.7801479 115.974598,31.7483888 116.108694,31.6954562 C116.24279,31.6425235 116.353947,31.559597 116.442168,31.4466741 C116.530389,31.3337511 116.574499,31.1749556 116.574499,30.9702828 C116.574499,30.7797254 116.535682,30.6279875 116.458048,30.5150645 C116.380413,30.4021416 116.281607,30.3156863 116.161626,30.255696 C116.041646,30.1957057 115.904023,30.1551246 115.748754,30.1339515 C115.593485,30.1127785 115.441747,30.1021921 115.293536,30.1021921 L114.213716,30.1021921 L114.213716,31.8066141 Z M119.641779,28.7047778 L124.733872,28.7047778 L124.733872,30.2292298 L121.293268,30.2292298 L121.293268,31.6266441 L124.543315,31.6266441 L124.543315,33.1510961 L121.293268,33.1510961 L121.293268,34.675548 L124.924428,34.675548 L124.924428,36.2 L119.641779,36.2 L119.641779,28.7047778 Z M126.403737,28.7047778 L128.880972,28.7047778 C129.480875,28.7047778 130.050774,28.7718248 130.590687,28.9059208 C131.1306,29.0400168 131.601693,29.2570373 132.003981,29.5569888 C132.406269,29.8569404 132.725624,30.2468715 132.962057,30.726794 C133.198489,31.2067164 133.316703,31.7889666 133.316703,32.4735619 C133.316703,33.0805226 133.202018,33.6151341 132.972643,34.0774124 C132.743268,34.5396906 132.434499,34.9278574 132.046327,35.2419243 C131.658154,35.5559912 131.209998,35.7941844 130.701845,35.9565111 C130.193692,36.1188379 129.660845,36.2 129.103288,36.2 L126.403737,36.2 L126.403737,28.7047778 Z M128.055227,34.675548 L128.912731,34.675548 C129.293846,34.675548 129.648489,34.6367314 129.976671,34.5590968 C130.304854,34.4814623 130.588921,34.3526615 130.828882,34.1726906 C131.068844,33.9927197 131.257634,33.7562908 131.395259,33.463397 C131.532884,33.1705031 131.601695,32.8123311 131.601695,32.3888701 C131.601695,32.0218705 131.532884,31.7025152 131.395259,31.4307944 C131.257634,31.1590736 131.072373,30.9349955 130.839469,30.7585534 C130.606565,30.5821113 130.333084,30.4497817 130.019017,30.3615607 C129.70495,30.2733397 129.375009,30.2292298 129.029182,30.2292298 L128.055227,30.2292298 L128.055227,34.675548 Z M140.351113,28.7047778 L141.716768,28.7047778 L144.977401,36.2 L143.114182,36.2 L142.468408,34.6120292 L139.557128,34.6120292 L138.932526,36.2 L137.111653,36.2 L140.351113,28.7047778 Z M140.986301,30.8855911 L140.075865,33.2146149 L141.907324,33.2146149 L140.986301,30.8855911 Z M150.786577,30.6526887 C150.624251,30.4550735 150.424874,30.3033356 150.188442,30.1974704 C149.952009,30.0916051 149.678528,30.0386733 149.36799,30.0386733 C149.057452,30.0386733 148.769856,30.0986627 148.505193,30.2186433 C148.24053,30.3386239 148.011158,30.5062414 147.817072,30.7215007 C147.622986,30.9367601 147.471248,31.1925973 147.361854,31.48902 C147.25246,31.7854427 147.197763,32.1065624 147.197763,32.4523889 C147.197763,32.8052731 147.25246,33.1281572 147.361854,33.4210511 C147.471248,33.713945 147.621221,33.9680177 147.811779,34.1832771 C148.002336,34.3985364 148.226414,34.5661539 148.48402,34.6861345 C148.741625,34.8061151 149.018635,34.8661045 149.315058,34.8661045 C149.653827,34.8661045 149.953774,34.7955288 150.214908,34.6543751 C150.476042,34.5132214 150.691298,34.3156093 150.860683,34.0615327 L152.236924,35.0884204 C151.919328,35.5330545 151.517046,35.8612318 151.030066,36.0729623 C150.543086,36.2846928 150.041998,36.3905565 149.526787,36.3905565 C148.941,36.3905565 148.401095,36.298808 147.907057,36.1153082 C147.413019,35.9318085 146.986036,35.6689137 146.626094,35.3266161 C146.266152,34.9843184 145.985613,34.5696857 145.784469,34.0827056 C145.583325,33.5957255 145.482755,33.052292 145.482755,32.4523889 C145.482755,31.8524858 145.583325,31.3090524 145.784469,30.8220722 C145.985613,30.3350921 146.266152,29.9204594 146.626094,29.5781618 C146.986036,29.2358641 147.413019,28.9729694 147.907057,28.7894696 C148.401095,28.6059698 148.941,28.5142213 149.526787,28.5142213 C149.738518,28.5142213 149.959067,28.5336297 150.188442,28.5724469 C150.417816,28.6112642 150.643659,28.673018 150.865976,28.7577102 C151.088293,28.8424024 151.301785,28.9553236 151.506458,29.0964773 C151.71113,29.237631 151.894627,29.4105416 152.056954,29.6152144 L150.786577,30.6526887 Z M155.759422,28.7047778 L157.125077,28.7047778 L160.38571,36.2 L158.522491,36.2 L157.876717,34.6120292 L154.965437,34.6120292 L154.340835,36.2 L152.519962,36.2 L155.759422,28.7047778 Z M156.39461,30.8855911 L155.484174,33.2146149 L157.315634,33.2146149 L156.39461,30.8855911 Z M161.29335,28.7047778 L163.770584,28.7047778 C164.370487,28.7047778 164.940387,28.7718248 165.4803,28.9059208 C166.020212,29.0400168 166.491306,29.2570373 166.893594,29.5569888 C167.295882,29.8569404 167.615237,30.2468715 167.851669,30.726794 C168.088102,31.2067164 168.206316,31.7889666 168.206316,32.4735619 C168.206316,33.0805226 168.091631,33.6151341 167.862256,34.0774124 C167.632881,34.5396906 167.324112,34.9278574 166.93594,35.2419243 C166.547767,35.5559912 166.099611,35.7941844 165.591458,35.9565111 C165.083304,36.1188379 164.550457,36.2 163.9929,36.2 L161.29335,36.2 L161.29335,28.7047778 Z M162.94484,34.675548 L163.802344,34.675548 C164.183459,34.675548 164.538102,34.6367314 164.866284,34.5590968 C165.194467,34.4814623 165.478534,34.3526615 165.718495,34.1726906 C165.958456,33.9927197 166.147247,33.7562908 166.284871,33.463397 C166.422496,33.1705031 166.491308,32.8123311 166.491308,32.3888701 C166.491308,32.0218705 166.422496,31.7025152 166.284871,31.4307944 C166.147247,31.1590736 165.961985,30.9349955 165.729082,30.7585534 C165.496178,30.5821113 165.222697,30.4497817 164.90863,30.3615607 C164.594563,30.2733397 164.264621,30.2292298 163.918795,30.2292298 L162.94484,30.2292298 L162.94484,34.675548 Z M169.548001,28.7047778 L174.640094,28.7047778 L174.640094,30.2292298 L171.199491,30.2292298 L171.199491,31.6266441 L174.449538,31.6266441 L174.449538,33.1510961 L171.199491,33.1510961 L171.199491,34.675548 L174.830651,34.675548 L174.830651,36.2 L169.548001,36.2 L169.548001,28.7047778 Z M172.067581,26.6298293 L174.227222,26.6298293 L172.395762,28.1542813 L170.998348,28.1542813 L172.067581,26.6298293 Z M176.30996,28.7047778 L178.808367,28.7047778 L180.533962,33.5957279 L180.555135,33.5957279 L182.291316,28.7047778 L184.779137,28.7047778 L184.779137,36.2 L183.127648,36.2 L183.127648,30.4515457 L183.106475,30.4515457 L181.137391,36.2 L179.877601,36.2 L177.982622,30.4515457 L177.961449,30.4515457 L177.961449,36.2 L176.30996,36.2 L176.30996,28.7047778 Z M186.438416,28.7047778 L188.089906,28.7047778 L188.089906,36.2 L186.438416,36.2 L186.438416,28.7047778 Z M194.650721,30.6526887 C194.488395,30.4550735 194.289018,30.3033356 194.052586,30.1974704 C193.816153,30.0916051 193.542672,30.0386733 193.232134,30.0386733 C192.921596,30.0386733 192.634,30.0986627 192.369337,30.2186433 C192.104674,30.3386239 191.875302,30.5062414 191.681216,30.7215007 C191.48713,30.9367601 191.335392,31.1925973 191.225998,31.48902 C191.116604,31.7854427 191.061907,32.1065624 191.061907,32.4523889 C191.061907,32.8052731 191.116604,33.1281572 191.225998,33.4210511 C191.335392,33.713945 191.485365,33.9680177 191.675923,34.1832771 C191.86648,34.3985364 192.090558,34.5661539 192.348164,34.6861345 C192.605769,34.8061151 192.882779,34.8661045 193.179202,34.8661045 C193.517971,34.8661045 193.817918,34.7955288 194.079052,34.6543751 C194.340186,34.5132214 194.555442,34.3156093 194.724827,34.0615327 L196.101068,35.0884204 C195.783472,35.5330545 195.38119,35.8612318 194.89421,36.0729623 C194.40723,36.2846928 193.906142,36.3905565 193.390931,36.3905565 C192.805143,36.3905565 192.265239,36.298808 191.771201,36.1153082 C191.277163,35.9318085 190.85018,35.6689137 190.490238,35.3266161 C190.130296,34.9843184 189.849757,34.5696857 189.648613,34.0827056 C189.447469,33.5957255 189.346899,33.052292 189.346899,32.4523889 C189.346899,31.8524858 189.447469,31.3090524 189.648613,30.8220722 C189.849757,30.3350921 190.130296,29.9204594 190.490238,29.5781618 C190.85018,29.2358641 191.277163,28.9729694 191.771201,28.7894696 C192.265239,28.6059698 192.805143,28.5142213 193.390931,28.5142213 C193.602662,28.5142213 193.823211,28.5336297 194.052586,28.5724469 C194.28196,28.6112642 194.507803,28.673018 194.73012,28.7577102 C194.952437,28.8424024 195.165929,28.9553236 195.370601,29.0964773 C195.575274,29.237631 195.758771,29.4105416 195.921098,29.6152144 L194.650721,30.6526887 Z M199.623566,28.7047778 L200.989221,28.7047778 L204.249854,36.2 L202.386635,36.2 L201.74086,34.6120292 L198.829581,34.6120292 L198.204979,36.2 L196.384106,36.2 L199.623566,28.7047778 Z M200.258754,30.8855911 L199.348318,33.2146149 L201.179777,33.2146149 L200.258754,30.8855911 Z M208.44709,28.7047778 L210.924324,28.7047778 C211.524227,28.7047778 212.094126,28.7718248 212.634039,28.9059208 C213.173952,29.0400168 213.645045,29.2570373 214.047333,29.5569888 C214.449621,29.8569404 214.768977,30.2468715 215.005409,30.726794 C215.241841,31.2067164 215.360056,31.7889666 215.360056,32.4735619 C215.360056,33.0805226 215.24537,33.6151341 215.015995,34.0774124 C214.786621,34.5396906 214.477852,34.9278574 214.089679,35.2419243 C213.701507,35.5559912 213.25335,35.7941844 212.745197,35.9565111 C212.237044,36.1188379 211.704197,36.2 211.14664,36.2 L208.44709,36.2 L208.44709,28.7047778 Z M210.098579,34.675548 L210.956083,34.675548 C211.337198,34.675548 211.691842,34.6367314 212.020024,34.5590968 C212.348206,34.4814623 212.632274,34.3526615 212.872235,34.1726906 C213.112196,33.9927197 213.300986,33.7562908 213.438611,33.463397 C213.576236,33.1705031 213.645047,32.8123311 213.645047,32.3888701 C213.645047,32.0218705 213.576236,31.7025152 213.438611,31.4307944 C213.300986,31.1590736 213.115725,30.9349955 212.882821,30.7585534 C212.649918,30.5821113 212.376437,30.4497817 212.06237,30.3615607 C211.748303,30.2733397 211.418361,30.2292298 211.072535,30.2292298 L210.098579,30.2292298 L210.098579,34.675548 Z M216.701741,28.7047778 L221.793834,28.7047778 L221.793834,30.2292298 L218.35323,30.2292298 L218.35323,31.6266441 L221.603277,31.6266441 L221.603277,33.1510961 L218.35323,33.1510961 L218.35323,34.675548 L221.98439,34.675548 L221.98439,36.2 L216.701741,36.2 L216.701741,28.7047778 Z M226.753295,28.7047778 L229.230529,28.7047778 C229.830432,28.7047778 230.400332,28.7718248 230.940245,28.9059208 C231.480157,29.0400168 231.951251,29.2570373 232.353539,29.5569888 C232.755827,29.8569404 233.075182,30.2468715 233.311614,30.726794 C233.548047,31.2067164 233.666261,31.7889666 233.666261,32.4735619 C233.666261,33.0805226 233.551575,33.6151341 233.322201,34.0774124 C233.092826,34.5396906 232.784057,34.9278574 232.395884,35.2419243 C232.007712,35.5559912 231.559556,35.7941844 231.051403,35.9565111 C230.543249,36.1188379 230.010402,36.2 229.452845,36.2 L226.753295,36.2 L226.753295,28.7047778 Z M228.404785,34.675548 L229.262289,34.675548 C229.643404,34.675548 229.998047,34.6367314 230.326229,34.5590968 C230.654411,34.4814623 230.938479,34.3526615 231.17844,34.1726906 C231.418401,33.9927197 231.607192,33.7562908 231.744816,33.463397 C231.882441,33.1705031 231.951253,32.8123311 231.951253,32.3888701 C231.951253,32.0218705 231.882441,31.7025152 231.744816,31.4307944 C231.607192,31.1590736 231.42193,30.9349955 231.189027,30.7585534 C230.956123,30.5821113 230.682642,30.4497817 230.368575,30.3615607 C230.054508,30.2733397 229.724566,30.2292298 229.37874,30.2292298 L228.404785,30.2292298 L228.404785,34.675548 Z M234.923254,28.7047778 L236.574744,28.7047778 L236.574744,36.2 L234.923254,36.2 L234.923254,28.7047778 Z M241.939288,30.5362375 C241.805192,30.3668531 241.623459,30.2415811 241.394085,30.1604177 C241.16471,30.0792544 240.94769,30.0386733 240.743017,30.0386733 C240.623036,30.0386733 240.499528,30.0527885 240.37249,30.0810192 C240.245452,30.1092499 240.125473,30.1533598 240.01255,30.2133501 C239.899627,30.2733404 239.807879,30.3527381 239.737302,30.4515457 C239.666725,30.5503533 239.631437,30.6703321 239.631437,30.8114858 C239.631437,31.0373316 239.716128,31.2102423 239.885512,31.3302229 C240.054897,31.4502035 240.268389,31.5525384 240.525994,31.6372306 C240.783599,31.7219228 241.060609,31.8066137 241.357032,31.8913059 C241.653455,31.9759981 241.930465,32.0959769 242.18807,32.2512459 C242.445676,32.406515 242.659167,32.6147135 242.828552,32.8758478 C242.997936,33.1369821 243.082627,33.4863322 243.082627,33.9239085 C243.082627,34.3403118 243.004994,34.7037771 242.849725,35.0143151 C242.694456,35.3248532 242.484493,35.5824548 242.21983,35.7871276 C241.955166,35.9918004 241.648162,36.1435383 241.298806,36.2423459 C240.949451,36.3411535 240.580693,36.3905565 240.19252,36.3905565 C239.70554,36.3905565 239.253855,36.3164519 238.837452,36.1682406 C238.421048,36.0200292 238.032882,35.7800716 237.67294,35.4483605 L238.848038,34.1568109 C239.017423,34.3826568 239.230914,34.5573318 239.48852,34.6808413 C239.746125,34.8043507 240.012549,34.8661045 240.287798,34.8661045 C240.421894,34.8661045 240.557753,34.850225 240.695378,34.8184654 C240.833002,34.7867058 240.95651,34.7390672 241.065904,34.675548 C241.175298,34.6120289 241.263518,34.5308667 241.330566,34.4320592 C241.397614,34.3332516 241.431137,34.2168016 241.431137,34.0827056 C241.431137,33.8568597 241.344682,33.6786559 241.171769,33.5480888 C240.998856,33.4175216 240.781835,33.3063648 240.520701,33.2146149 C240.259566,33.122865 239.977263,33.0311165 239.673783,32.9393666 C239.370303,32.8476167 239.088,32.7241091 238.826865,32.5688401 C238.565731,32.4135711 238.34871,32.2089013 238.175797,31.9548247 C238.002884,31.7007481 237.916429,31.3655132 237.916429,30.9491099 C237.916429,30.5468219 237.995826,30.1939431 238.154624,29.8904627 C238.313422,29.5869823 238.525149,29.3329095 238.789813,29.1282367 C239.054476,28.9235639 239.359716,28.7700616 239.705542,28.6677252 C240.051369,28.5653888 240.407777,28.5142213 240.774776,28.5142213 C241.198237,28.5142213 241.607577,28.5742107 242.002807,28.6941914 C242.398037,28.814172 242.754445,29.0153129 243.072041,29.2976203 L241.939288,30.5362375 Z M244.530177,28.7047778 L249.62227,28.7047778 L249.62227,30.2292298 L246.181666,30.2292298 L246.181666,31.6266441 L249.431713,31.6266441 L249.431713,33.1510961 L246.181666,33.1510961 L246.181666,34.675548 L249.812826,34.675548 L249.812826,36.2 L244.530177,36.2 L244.530177,28.7047778 Z M251.292135,28.7047778 L253.536467,28.7047778 L256.722995,33.913322 L256.744168,33.913322 L256.744168,28.7047778 L258.395658,28.7047778 L258.395658,36.2 L256.236018,36.2 L252.964798,30.8644181 L252.943625,30.8644181 L252.943625,36.2 L251.292135,36.2 L251.292135,28.7047778 Z M252.774241,28.0907624 C252.802472,27.9143204 252.851875,27.7378809 252.922452,27.5614388 C252.993029,27.3849968 253.083013,27.2279657 253.192407,27.0903408 C253.301801,26.952716 253.43413,26.8415592 253.5894,26.756867 C253.744669,26.6721748 253.921108,26.6298293 254.118723,26.6298293 C254.295165,26.6298293 254.453961,26.651002 254.595114,26.6933481 C254.736268,26.7356942 254.884477,26.7886261 255.039746,26.8521452 C255.138554,26.8874336 255.235595,26.9227215 255.330874,26.9580099 C255.426153,26.9932984 255.526723,27.0109423 255.632589,27.0109423 C255.752569,27.0109423 255.847847,26.97389 255.918423,26.8997843 C255.989,26.8256787 256.04899,26.7356946 256.098393,26.6298293 L256.924138,26.6298293 C256.88885,26.8345021 256.839447,27.0250567 256.775928,27.2014988 C256.712408,27.3779409 256.625953,27.5314432 256.516559,27.6620103 C256.407165,27.7925775 256.273071,27.8966767 256.114273,27.9743113 C255.955475,28.0519458 255.766685,28.0907624 255.547897,28.0907624 C255.392628,28.0907624 255.246183,28.0678253 255.108558,28.0219504 C254.970933,27.9760754 254.842133,27.924908 254.722152,27.8684465 C254.602171,27.8119851 254.487486,27.7608176 254.378092,27.7149427 C254.268698,27.6690678 254.16107,27.6461306 254.055204,27.6461306 C253.935224,27.6461306 253.839946,27.6955337 253.76937,27.7943412 C253.698793,27.8931488 253.645861,27.9919549 253.610572,28.0907624 L252.774241,28.0907624 Z M259.673824,32.4523889 C259.673824,31.8524858 259.774394,31.3090524 259.975538,30.8220722 C260.176682,30.3350921 260.457221,29.9204594 260.817163,29.5781618 C261.177105,29.2358641 261.604088,28.9729694 262.098126,28.7894696 C262.592164,28.6059698 263.132068,28.5142213 263.717856,28.5142213 C264.303644,28.5142213 264.843549,28.6059698 265.337586,28.7894696 C265.831624,28.9729694 266.258608,29.2358641 266.618549,29.5781618 C266.978491,29.9204594 267.25903,30.3350921 267.460174,30.8220722 C267.661318,31.3090524 267.761888,31.8524858 267.761888,32.4523889 C267.761888,33.052292 267.661318,33.5957255 267.460174,34.0827056 C267.25903,34.5696857 266.978491,34.9843184 266.618549,35.3266161 C266.258608,35.6689137 265.831624,35.9318085 265.337586,36.1153082 C264.843549,36.298808 264.303644,36.3905565 263.717856,36.3905565 C263.132068,36.3905565 262.592164,36.298808 262.098126,36.1153082 C261.604088,35.9318085 261.177105,35.6689137 260.817163,35.3266161 C260.457221,34.9843184 260.176682,34.5696857 259.975538,34.0827056 C259.774394,33.5957255 259.673824,33.052292 259.673824,32.4523889 Z M261.388832,32.4523889 C261.388832,32.8052731 261.443529,33.1281572 261.552923,33.4210511 C261.662317,33.713945 261.819348,33.9680177 262.024021,34.1832771 C262.228693,34.3985364 262.473944,34.5661539 262.75978,34.6861345 C263.045617,34.8061151 263.364972,34.8661045 263.717856,34.8661045 C264.07074,34.8661045 264.390096,34.8061151 264.675932,34.6861345 C264.961768,34.5661539 265.207019,34.3985364 265.411692,34.1832771 C265.616364,33.9680177 265.773396,33.713945 265.88279,33.4210511 C265.992184,33.1281572 266.04688,32.8052731 266.04688,32.4523889 C266.04688,32.1065624 265.992184,31.7854427 265.88279,31.48902 C265.773396,31.1925973 265.616364,30.9367601 265.411692,30.7215007 C265.207019,30.5062414 264.961768,30.3386239 264.675932,30.2186433 C264.390096,30.0986627 264.07074,30.0386733 263.717856,30.0386733 C263.364972,30.0386733 263.045617,30.0986627 262.75978,30.2186433 C262.473944,30.3386239 262.228693,30.5062414 262.024021,30.7215007 C261.819348,30.9367601 261.662317,31.1925973 261.552923,31.48902 C261.443529,31.7854427 261.388832,32.1065624 261.388832,32.4523889 Z" id="RED-ACADÉMICA-DE-DISEÑO-" fill="#FFFFFF"></path>
                </g>
            </g>
        </g>
    </g>
</svg>