<svg xmlns="http://www.w3.org/2000/svg" width="107" height="29" viewBox="0 0 107 29">
  <path fill="#FFF" d="M0.892975696,0.552405656 L11.9023554,0.552405656 C13.3488505,0.552405656 14.7216609,0.693035013 16.0208278,0.974297945 C17.3199947,1.25556088 18.4584228,1.7243254 19.4361463,2.38060558 C20.4138698,3.03688575 21.1906796,3.92084171 21.7665989,5.03249996 C22.3425183,6.14415822 22.6304736,7.53036188 22.6304736,9.19115253 C22.6304736,11.2001735 22.108136,12.9078157 21.0634451,14.3141303 C20.0187542,15.720445 18.4919212,16.6110976 16.4829003,16.9861148 L23.7153395,29 L16.2016388,29 L10.2549665,17.6289983 L7.1610897,17.6289983 L7.1610897,29 L0.892975696,29 L0.892975696,0.552405656 Z M7.1610897,12.3252095 L10.8576698,12.3252095 C11.4201956,12.3252095 12.0161962,12.3051196 12.6456895,12.2649392 C13.2751827,12.2247588 13.8443968,12.1042193 14.3533487,11.9033172 C14.8623007,11.7024151 15.2841888,11.3876733 15.6190256,10.9590821 C15.9538624,10.530491 16.1212783,9.92779374 16.1212783,9.15097231 C16.1212783,8.42772477 15.9739523,7.85181407 15.6792959,7.42322293 C15.3846395,6.9946318 15.0096279,6.66649663 14.5542498,6.43880759 C14.0988717,6.21111855 13.5765341,6.05709592 12.9872213,5.97673509 C12.3979085,5.89637425 11.8219978,5.85619443 11.2594719,5.85619443 L7.1610897,5.85619443 L7.1610897,12.3252095 Z M48.2917478,0.552405656 L53.4749959,0.552405656 L65.850503,29 L58.7787847,29 L56.3277914,22.9729673 L45.2782314,22.9729673 L42.9075985,29 L35.996601,29 L48.2917478,0.552405656 Z M50.7025608,8.82953056 L47.2470621,17.6691785 L54.1982398,17.6691785 L50.7025608,8.82953056 Z M80.7032985,0.552405656 L90.1054695,0.552405656 C92.3823599,0.552405656 94.5453734,0.806877825 96.5945747,1.3158298 C98.6437761,1.82478177 100.431778,2.648468 101.958634,3.7869132 C103.48549,4.92535841 104.697581,6.40531497 105.594944,8.22682729 C106.492306,10.0483396 106.940981,12.2582295 106.940981,14.8565633 C106.940981,17.1602406 106.5057,19.1893213 105.635124,20.9438663 C104.764548,22.6984112 103.592637,24.1716712 102.119355,25.3636903 C100.646073,26.5557094 98.9451271,27.4597552 97.016467,28.075855 C95.0878069,28.6919547 93.0654228,29 90.9492541,29 L80.7032985,29 L80.7032985,0.552405656 Z M86.9714125,23.2140486 L90.2260102,23.2140486 C91.6725052,23.2140486 93.0185291,23.0667226 94.2641221,22.7720662 C95.5097151,22.4774098 96.5878735,21.9885554 97.4986296,21.3054883 C98.4093858,20.6224211 99.1259258,19.7250719 99.6482713,18.6134136 C100.170617,17.5017554 100.431786,16.1423383 100.431786,14.5351215 C100.431786,13.1422003 100.170617,11.9301092 99.6482713,10.8988118 C99.1259258,9.86751437 98.4227791,9.0170416 97.5388098,8.34736795 C96.6548406,7.6776943 95.616862,7.1754466 94.4248429,6.84060977 C93.2328239,6.50577295 91.9805529,6.33835705 90.6679926,6.33835705 L86.9714125,6.33835705 L86.9714125,23.2140486 Z"/>
</svg>
