<svg xmlns="http://www.w3.org/2000/svg" width="15" height="14" viewBox="0 0 15 14">
  <path fill="#2F3786" fill-rule="evenodd" d="M13.111,11.361 C13.111,11.4555 13.0305,11.536 12.936,11.536 L11.515,11.536 L11.515,3.717 L12.936,3.717 C13.0305,3.717 13.111,3.7975 13.111,3.892 L13.111,11.361 Z M1.3265,11.361 L1.3265,3.892 C1.3265,3.7975 1.407,3.717 1.5015,3.717 L2.8735,3.717 L2.8735,11.536 L1.5015,11.536 C1.407,11.536 1.3265,11.4555 1.3265,11.361 Z M5.208,1.267 C5.208,1.1725 5.2885,1.092 5.383,1.092 L9.058,1.092 C9.1525,1.092 9.233,1.1725 9.233,1.267 L9.233,2.667 L5.208,2.667 L5.208,1.267 Z M3.9235,11.536 L10.465,11.536 L10.465,3.717 L3.9235,3.717 L3.9235,11.536 Z M12.936,2.667 L10.283,2.667 L10.283,1.267 C10.283,0.5915 9.7335,0.042 9.058,0.042 L5.383,0.042 C4.7075,0.042 4.158,0.5915 4.158,1.267 L4.158,2.667 L1.5015,2.667 C0.826,2.667 0.2765,3.2165 0.2765,3.892 L0.2765,11.361 C0.2765,12.0365 0.826,12.586 1.5015,12.586 L12.936,12.586 C13.6115,12.586 14.161,12.0365 14.161,11.361 L14.161,3.892 C14.161,3.2165 13.6115,2.667 12.936,2.667 Z" transform="translate(0 .8)"/>
</svg>
