<svg xmlns="http://www.w3.org/2000/svg" width="13" height="15" viewBox="0 0 13 15">
  <path fill="#CC3454" fill-rule="evenodd" stroke="#CC3454" stroke-width=".5" d="M5.835375,1.285875 C6.94035,1.285875 7.83945,2.187 7.83945,3.290625 C7.83945,4.397625 6.94035,5.295375 5.835375,5.295375 C4.7304,5.295375 3.8316375,4.397625 3.8316375,3.290625 C3.8316375,2.187 4.7304,1.285875 5.835375,1.285875 Z M8.85195,3.290625 C8.85195,1.62675 7.498575,0.273375 5.835375,0.273375 C4.172175,0.273375 2.8191375,1.62675 2.8191375,3.290625 C2.8191375,4.9545 4.172175,6.307875 5.835375,6.307875 C7.498575,6.307875 8.85195,4.9545 8.85195,3.290625 Z M10.6167375,12.27825 L1.0540125,12.27825 L1.0540125,9.92925 C1.0540125,9.33525 1.28655,8.75475 1.676025,8.373375 C1.87515,8.177625 2.2032,7.941375 2.6713125,7.954875 C2.9295,7.961625 3.729375,7.9515 4.70205,7.948125 C6.155325,7.941375 7.9882875,7.93125 8.9366625,7.93125 C10.0909125,7.93125 10.6167375,8.872875 10.6167375,9.747 L10.6167375,12.27825 Z M8.9366625,6.91875 C7.987275,6.91875 6.1522875,6.928875 4.697325,6.935625 C3.7317375,6.939 2.934225,6.942375 2.68515,6.942375 C2.6841375,6.942375 2.6827875,6.942375 2.6814375,6.942375 C2.0543625,6.93225 1.4441625,7.182 0.9669375,7.651125 C0.38745,8.218125 0.0415125,9.068625 0.0415125,9.92925 L0.0415125,12.7845 C0.0415125,13.06125 0.267975,13.29075 0.5477625,13.29075 L11.1229875,13.29075 C11.4024375,13.29075 11.6292375,13.06125 11.6292375,12.7845 L11.6292375,9.747 C11.6292375,8.37675 10.6855875,6.91875 8.9366625,6.91875 Z" transform="translate(.458 .8)"/>
</svg>
