<svg xmlns="http://www.w3.org/2000/svg" width="107" height="29" viewBox="0 0 107 29">
  <path fill="#CC3454" fill-rule="evenodd" d="M907.892976,24.5524057 L918.902355,24.5524057 C920.348851,24.5524057 921.721661,24.693035 923.020828,24.9742979 C924.319995,25.2555609 925.458423,25.7243254 926.436146,26.3806056 C927.41387,27.0368858 928.19068,27.9208417 928.766599,29.0325 C929.342518,30.1441582 929.630474,31.5303619 929.630474,33.1911525 C929.630474,35.2001735 929.108136,36.9078157 928.063445,38.3141303 C927.018754,39.720445 925.491921,40.6110976 923.4829,40.9861148 L930.71534,53 L923.201639,53 L917.254966,41.6289983 L914.16109,41.6289983 L914.16109,53 L907.892976,53 L907.892976,24.5524057 Z M914.16109,36.3252095 L917.85767,36.3252095 C918.420196,36.3252095 919.016196,36.3051196 919.645689,36.2649392 C920.275183,36.2247588 920.844397,36.1042193 921.353349,35.9033172 C921.862301,35.7024151 922.284189,35.3876733 922.619026,34.9590821 C922.953862,34.530491 923.121278,33.9277937 923.121278,33.1509723 C923.121278,32.4277248 922.973952,31.8518141 922.679296,31.4232229 C922.38464,30.9946318 922.009628,30.6664966 921.55425,30.4388076 C921.098872,30.2111186 920.576534,30.0570959 919.987221,29.9767351 C919.397909,29.8963742 918.821998,29.8561944 918.259472,29.8561944 L914.16109,29.8561944 L914.16109,36.3252095 Z M955.291748,24.5524057 L960.474996,24.5524057 L972.850503,53 L965.778785,53 L963.327791,46.9729673 L952.278231,46.9729673 L949.907599,53 L942.996601,53 L955.291748,24.5524057 Z M957.702561,32.8295306 L954.247062,41.6691785 L961.19824,41.6691785 L957.702561,32.8295306 Z M987.703298,24.5524057 L997.10547,24.5524057 C999.38236,24.5524057 1001.54537,24.8068778 1003.59457,25.3158298 C1005.64378,25.8247818 1007.43178,26.648468 1008.95863,27.7869132 C1010.48549,28.9253584 1011.69758,30.405315 1012.59494,32.2268273 C1013.49231,34.0483396 1013.94098,36.2582295 1013.94098,38.8565633 C1013.94098,41.1602406 1013.5057,43.1893213 1012.63512,44.9438663 C1011.76455,46.6984112 1010.59264,48.1716712 1009.11935,49.3636903 C1007.64607,50.5557094 1005.94513,51.4597552 1004.01647,52.075855 C1002.08781,52.6919547 1000.06542,53 997.949254,53 L987.703298,53 L987.703298,24.5524057 Z M993.971413,47.2140486 L997.22601,47.2140486 C998.672505,47.2140486 1000.01853,47.0667226 1001.26412,46.7720662 C1002.50972,46.4774098 1003.58787,45.9885554 1004.49863,45.3054883 C1005.40939,44.6224211 1006.12593,43.7250719 1006.64827,42.6134136 C1007.17062,41.5017554 1007.43179,40.1423383 1007.43179,38.5351215 C1007.43179,37.1422003 1007.17062,35.9301092 1006.64827,34.8988118 C1006.12593,33.8675144 1005.42278,33.0170416 1004.53881,32.3473679 C1003.65484,31.6776943 1002.61686,31.1754466 1001.42484,30.8406098 C1000.23282,30.5057729 998.980553,30.338357 997.667993,30.338357 L993.971413,30.338357 L993.971413,47.2140486 Z" transform="translate(-907 -24)"/>
</svg>
